<?xml version="1.0" encoding="UTF-8"?>
<svg version="1.1" viewBox="0 0 852.3 147.1" xmlns="http://www.w3.org/2000/svg"><path d="m45.36 146.3c-2.135-0.5322-6.617-2.425-9.96-4.206-25.74-13.71-31.27-46.58-11.49-68.23 8.305-9.086 22.3-14.8 33.59-13.71l4.25 0.4107v22.79l-5.75 0.0164c-6.852 0.0196-12.05 2.607-16.61 8.271-2.532 3.144-3.12 4.886-3.462 10.26-0.5081 7.979 0.7406 11.2 6.342 16.36 6.797 6.265 14.89 7.458 22.95 3.382 4.392-2.221 6.471-4.277 8.891-8.794 2.098-3.914 2.15-5.074 2.437-54.25l0.2933-50.25h22.66l0.6394 4.75c1.862 13.83 12.26 24.39 27.87 28.3l4.75 1.19v22.99l-4.75-0.6652c-7.907-1.107-15.42-3.533-21.93-7.082l-6.184-3.369-0.339 29.69c-0.3188 27.93-0.4712 30.02-2.559 35.19-4.492 11.13-14.29 20.9-25.23 25.15-6.243 2.428-20.06 3.366-26.38 1.791z" fill="#f0488f"/><path d="m33.37 137.9c-2.135-0.5322-6.617-2.425-9.96-4.206-25.74-13.71-31.27-46.58-11.49-68.23 8.305-9.086 22.3-14.8 33.59-13.71l4.25 0.4107v22.79l-5.75 0.01645c-6.852 0.0196-12.05 2.607-16.61 8.271-2.532 3.144-3.12 4.886-3.462 10.26-0.5081 7.979 0.7406 11.2 6.342 16.36 6.797 6.265 14.89 7.458 22.95 3.382 4.392-2.221 6.471-4.277 8.891-8.794 2.098-3.914 2.15-5.074 2.437-54.25l0.2933-50.25h22.66l0.6394 4.75c1.862 13.83 12.26 24.39 27.87 28.3l4.75 1.19v22.99l-4.75-0.6652c-7.907-1.107-15.42-3.533-21.93-7.082l-6.184-3.369-0.339 29.69c-0.3188 27.93-0.4712 30.02-2.559 35.19-4.492 11.13-14.29 20.9-25.23 25.15-6.243 2.428-20.06 3.366-26.38 1.791z" fill="#0ff"/><path d="m40.44 142.2c-2.135-0.5322-6.617-2.425-9.96-4.206-25.74-13.71-31.27-46.58-11.49-68.23 8.305-9.086 22.3-14.8 33.59-13.71l4.25 0.4107v22.79l-5.75 0.01645c-6.852 0.0196-12.05 2.607-16.61 8.271-2.532 3.144-3.12 4.886-3.462 10.26-0.5081 7.979 0.7406 11.2 6.342 16.36 6.797 6.265 14.89 7.458 22.95 3.382 4.392-2.221 6.471-4.277 8.891-8.794 2.098-3.914 2.15-5.074 2.437-54.25l0.2933-50.25h22.66l0.6394 4.75c1.862 13.83 12.26 24.39 27.87 28.3l4.75 1.19v22.99l-4.75-0.6652c-7.907-1.107-15.42-3.533-21.93-7.082l-6.184-3.369-0.339 29.69c-0.3188 27.93-0.4712 30.02-2.559 35.19-4.492 11.13-14.29 20.9-25.23 25.15-6.243 2.428-20.06 3.366-26.38 1.791z"/><g transform="matrix(1.023 0 0 .978 -.1761 -2.3)" stroke-linecap="round" stroke-linejoin="round" stroke-width="14.94" style="paint-order:stroke fill markers" aria-label="One World Story"><path d="m168.1 85.36q0 11.88 1.563 16.26 1.563 4.325 5.471 4.325 3.856 0 5.367-4.273 1.563-4.325 1.563-16.31t-1.563-16.31q-1.511-4.325-5.367-4.325-3.908 0-5.471 4.377-1.563 4.377-1.563 16.26zm-21.47 0.5211q0-18.86 7.451-29.23 7.504-10.37 21.05-10.37 13.5 0 20.9 10.37 7.451 10.32 7.451 29.23 0 18.86-7.399 29.18-7.399 10.32-20.95 10.32-13.6 0-21.05-10.32-7.451-10.37-7.451-29.18z"/><path d="m208.9 123.9v-53.36h18.55v7.92q2.71-4.533 6.357-6.67 3.648-2.189 8.598-2.189 6.044 0 9.171 3.595 3.179 3.595 3.179 10.58v40.12h-19.18v-31.06q0-2.449-0.9379-3.648-0.9379-1.251-2.814-1.251-1.72 0-2.762 1.407-0.99 1.407-0.99 3.804v30.74z"/><path d="m278.7 90.47h11.41q0-4.533-1.459-6.774-1.407-2.293-4.273-2.293-2.241 0-3.648 2.241-1.355 2.189-2.032 6.826zm27.56 14.75q-1.146 9.379-7.295 14.8-6.097 5.367-15.68 5.367-11.26 0-17.35-7.243-6.097-7.295-6.097-20.74 0-13.5 6.149-20.95 6.149-7.451 17.2-7.451 12.04 0 17.98 6.618t5.94 19.96q0 1.563-0.0521 2.397 0 0.7816-0.1042 1.459h-28.24v0.7295q0 5.888 1.303 8.441 1.355 2.553 4.377 2.553 2.241 0 3.595-1.459 1.407-1.459 2.032-4.481z"/><path d="m334.6 47.79h21.1l5.002 45.02 6.93-45.02h17.09l6.826 45.02 5.159-45.02h21.1l-14.85 76.08h-19.49l-7.295-47.57-7.347 47.57h-19.44z"/><path d="m434.9 96.88q0 5.94 1.198 8.963 1.198 2.97 3.595 2.97 2.397 0 3.595-2.97 1.198-3.022 1.198-8.963 0-5.888-1.198-8.806-1.198-2.918-3.595-2.918-2.397 0-3.595 2.918-1.198 2.918-1.198 8.806zm-19.96 0.3126q0-13.44 6.461-20.79 6.513-7.399 18.29-7.399t18.19 7.399q6.461 7.347 6.461 20.79 0 13.44-6.461 20.84-6.409 7.347-18.19 7.347-11.83 0-18.29-7.347-6.461-7.399-6.461-20.84z"/><path d="m469.9 123.9v-53.36h18.13v7.451q2.501-4.064 6.097-6.305 3.648-2.241 8.389-2.657v18.81h-0.4169q-7.139 0-10 2.71-2.814 2.657-2.814 9.536v23.81z"/><path d="m507.9 123.9v-83.01h19.33v83.01z"/><path d="m553.9 97.19q0 5.68 1.146 8.546 1.198 2.866 3.543 2.866 2.449 0 3.804-2.97 1.407-3.022 1.407-8.441 0-5.419-1.407-8.389-1.355-3.022-3.804-3.022-2.345 0-3.543 2.866-1.146 2.866-1.146 8.546zm9.9 26.68v-5.888q-2.71 3.752-5.784 5.523-3.074 1.772-6.774 1.772-8.077 0-12.56-7.347-4.429-7.399-4.429-20.74 0-13.29 4.481-20.69 4.481-7.399 12.51-7.399 3.648 0 6.67 1.772 3.022 1.72 5.888 5.523v-35.54h19.33v83.01z"/><path d="m614.9 98.6q4.533 3.595 8.337 5.471 3.856 1.876 6.722 1.876 2.553 0 4.169-1.511 1.667-1.511 1.667-3.804 0-2.71-5.523-7.92-0.1563-0.1563-0.2084-0.2084-9.536-8.806-12.25-13.65-2.71-4.846-2.71-10.47 0-9.64 6.513-15.84 6.566-6.253 16.83-6.253 4.012 0 8.285 1.094 4.325 1.094 8.91 3.283v19.75q-3.804-3.022-7.139-4.533-3.335-1.563-6.097-1.563-2.397 0-3.856 1.303-1.459 1.251-1.459 3.283 0 2.918 5.471 7.191 0.4169 0.3648 0.6253 0.5211 9.484 7.608 12.3 12.56 2.814 4.898 2.814 11.57 0 11.15-7.035 17.93-7.035 6.722-18.65 6.722-4.481 0-8.806-1.407-4.325-1.407-8.91-4.377z"/><path d="m666.3 123.9v-36.48h-6.409v-16.88h6.409v-15.68h19.44v15.68h6.93v16.88h-6.93v36.48z"/><path d="m714.7 96.88q0 5.94 1.198 8.963 1.198 2.97 3.595 2.97 2.397 0 3.595-2.97 1.198-3.022 1.198-8.963 0-5.888-1.198-8.806-1.198-2.918-3.595-2.918-2.397 0-3.595 2.918-1.198 2.918-1.198 8.806zm-19.96 0.3126q0-13.44 6.461-20.79 6.513-7.399 18.29-7.399 11.78 0 18.19 7.399 6.461 7.347 6.461 20.79 0 13.44-6.461 20.84-6.409 7.347-18.19 7.347-11.83 0-18.29-7.347-6.461-7.399-6.461-20.84z"/><path d="m749.6 123.9v-53.36h18.13v7.451q2.501-4.064 6.097-6.305 3.648-2.241 8.389-2.657v18.81h-0.4169q-7.139 0-10 2.71-2.814 2.657-2.814 9.536v23.81z"/><path d="m791 142.1 6.722-19.28-16.1-52.32h20.06l5.888 29.13 6.618-29.13h19.54l-24.33 71.6z"/></g></svg>
