<?xml version="1.0" encoding="UTF-8"?>
<svg enable-background="new 0 0 62 62" version="1.1" viewBox="0 0 130 60" xmlns="http://www.w3.org/2000/svg"><path d="m100 0c-16.6 0-30 13.4-30 30s13.4 30 30 30 30-13.4 30-30-13.4-30-30-30zm17.7 34.6c-2.1 8.1-9.4 13.7-17.7 13.7s-15.6-5.6-17.7-13.7c-0.3-1.1 0.4-2.2 1.4-2.4 1.1-0.3 2.2 0.4 2.4 1.4 1.6 6.3 7.3 10.7 13.8 10.7s12.2-4.4 13.8-10.7c0.3-1.1 1.4-1.7 2.4-1.4 1.2 0.2 1.9 1.3 1.6 2.4z"/><path d="m30 0c-16.6 0-30 13.4-30 30s13.4 30 30 30 30-13.4 30-30-13.4-30-30-30z"/><g fill="#fff"><path d="m16.35 16.13q0 0.8906 0.1797 1.344 0.1797 0.4453 0.5391 0.4453t0.5391-0.4453q0.1797-0.4531 0.1797-1.344 0-0.8828-0.1797-1.32-0.1797-0.4375-0.5391-0.4375t-0.5391 0.4375q-0.1797 0.4375-0.1797 1.32zm-2.992 0.04687q0-2.016 0.9688-3.117 0.9766-1.109 2.742-1.109t2.727 1.109q0.9688 1.102 0.9688 3.117t-0.9688 3.125q-0.9609 1.102-2.727 1.102-1.773 0-2.742-1.102-0.9688-1.109-0.9688-3.125z" style="paint-order:stroke fill markers"/><path d="m21.58 20.18v-8h2.781v1.188q0.4062-0.6797 0.9531-1 0.5469-0.3281 1.289-0.3281 0.9062 0 1.375 0.5391 0.4766 0.5391 0.4766 1.586v6.016h-2.875v-4.656q0-0.3672-0.1406-0.5469-0.1406-0.1875-0.4219-0.1875-0.2578 0-0.4141 0.2109-0.1484 0.2109-0.1484 0.5703v4.609z" style="paint-order:stroke fill markers"/><path d="m32.05 15.17h1.711q0-0.6797-0.2188-1.016-0.2109-0.3438-0.6406-0.3438-0.3359 0-0.5469 0.3359-0.2031 0.3281-0.3047 1.023zm4.133 2.211q-0.1719 1.406-1.094 2.219-0.9141 0.8047-2.352 0.8047-1.688 0-2.602-1.086-0.9141-1.094-0.9141-3.109 0-2.023 0.9219-3.141 0.9219-1.117 2.578-1.117 1.805 0 2.695 0.9922 0.8906 0.9922 0.8906 2.992 0 0.2344-0.0078 0.3594 0 0.1172-0.01563 0.2188h-4.234v0.1094q0 0.8828 0.1953 1.266 0.2031 0.3828 0.6562 0.3828 0.3359 0 0.5391-0.2188 0.2109-0.2188 0.3047-0.6719z" style="paint-order:stroke fill markers"/><path d="m12.97 25.51h2.672l0.7812 4.945 0.7031-4.945h2.367l0.7031 4.945 0.7891-4.945h2.688l-1.984 8h-2.578l-0.7969-4.688-0.7891 4.688h-2.57z" style="paint-order:stroke fill markers"/><path d="m26.82 29.46q0 0.8906 0.1797 1.344 0.1797 0.4453 0.5391 0.4453t0.5391-0.4453q0.1797-0.4531 0.1797-1.344 0-0.8828-0.1797-1.32-0.1797-0.4375-0.5391-0.4375t-0.5391 0.4375q-0.1797 0.4375-0.1797 1.32zm-2.992 0.0469q0-2.016 0.9688-3.117 0.9766-1.109 2.742-1.109t2.727 1.109q0.9688 1.102 0.9688 3.117 0 2.016-0.9688 3.125-0.9609 1.102-2.727 1.102-1.773 0-2.742-1.102-0.9688-1.109-0.9688-3.125z" style="paint-order:stroke fill markers"/><path d="m32.05 33.51v-8h2.719v1.117q0.375-0.6094 0.9141-0.9453 0.5469-0.3359 1.258-0.3984v2.82h-0.0625q-1.07 0-1.5 0.4062-0.4219 0.3984-0.4219 1.43v3.57z" style="paint-order:stroke fill markers"/><path d="m37.76 33.51v-12.45h2.898v12.45z" style="paint-order:stroke fill markers"/><path d="m44.65 29.51q0 0.8516 0.1719 1.281 0.1797 0.4297 0.5312 0.4297 0.3672 0 0.5703-0.4453 0.2109-0.4531 0.2109-1.266t-0.2109-1.258q-0.2031-0.4531-0.5703-0.4531-0.3516 0-0.5312 0.4297-0.1719 0.4297-0.1719 1.281zm1.484 4v-0.8828q-0.4062 0.5625-0.8672 0.8281-0.4609 0.2656-1.016 0.2656-1.211 0-1.883-1.102-0.6641-1.109-0.6641-3.109 0-1.992 0.6719-3.102 0.6719-1.109 1.875-1.109 0.5469 0 1 0.2656 0.4531 0.2578 0.8828 0.8281v-5.328h2.898v12.45z" style="paint-order:stroke fill markers"/><path d="m14.37 44.05q0.4297 0.3672 0.8359 0.5703 0.4141 0.1953 0.7656 0.1953 0.25 0 0.3984-0.125 0.1562-0.1328 0.1562-0.3359 0-0.2969-0.8203-0.6719-0.4609-0.2109-0.7266-0.3594-0.7578-0.4141-1.117-0.9297-0.3594-0.5234-0.3594-1.211 0-1.102 0.8281-1.828 0.8281-0.7344 2.117-0.7344 0.6406 0 1.297 0.2109 0.6641 0.2031 1.422 0.6406l-1.164 1.695q-0.3828-0.2656-0.6875-0.3984-0.2969-0.1328-0.5469-0.1328-0.2578 0-0.4219 0.1172-0.1562 0.1094-0.1562 0.2891 0 0.3281 0.7109 0.6484 0.375 0.1719 0.5938 0.2969 0.9609 0.5312 1.375 1.078 0.4141 0.5391 0.4141 1.266 0 1.164-0.8438 1.953t-2.102 0.7891q-0.8125 0-1.602-0.2812-0.7891-0.2812-1.602-0.8594z" style="paint-order:stroke fill markers"/><path d="m20.53 46.84v-5.469h-0.9609v-2.531h0.9609v-2.352h2.914v2.352h1.039v2.531h-1.039v5.469z" style="paint-order:stroke fill markers"/><path d="m27.79 42.8q0 0.8906 0.1797 1.344 0.1797 0.4453 0.5391 0.4453t0.5391-0.4453q0.1797-0.4531 0.1797-1.344 0-0.8828-0.1797-1.32-0.1797-0.4375-0.5391-0.4375t-0.5391 0.4375q-0.1797 0.4375-0.1797 1.32zm-2.992 0.0469q0-2.016 0.9688-3.117 0.9766-1.109 2.742-1.109t2.727 1.109q0.9688 1.102 0.9688 3.117 0 2.016-0.9688 3.125-0.9609 1.102-2.727 1.102-1.773 0-2.742-1.102-0.9688-1.109-0.9688-3.125z" style="paint-order:stroke fill markers"/><path d="m33.02 46.84v-8h2.719v1.117q0.375-0.6094 0.9141-0.9453 0.5469-0.3359 1.258-0.3984v2.82h-0.0625q-1.07 0-1.5 0.4062-0.4219 0.3984-0.4219 1.43v3.57z" style="paint-order:stroke fill markers"/><path d="m39.23 49.58 1.008-2.891-2.414-7.844h3.008l0.8828 4.367 0.9922-4.367h2.93l-3.648 10.73z" style="paint-order:stroke fill markers"/></g></svg>
