<svg width="351.8mm" height="52.27mm" viewBox="0 0 351.8 52.27" xmlns="http://www.w3.org/2000/svg"><g fill="#333"><g stroke-dasharray="5.55624993, 2.77812496" stroke-linecap="round" stroke-linejoin="round" stroke-miterlimit="10" stroke-width="2.778" aria-label="Septagram Internet Hazard Catalogue" paint-order="stroke fill markers"><path d="M66.388 20.7l2.1-.934q.488.984 1.083 1.439.604.446 1.422.446.926 0 1.463-.422t.537-1.14q0-.571-.397-.951-.396-.389-1.43-.77-.14-.057-.405-.148-1.81-.662-2.522-1.124-.702-.447-1.075-1.141t-.372-1.571q0-1.488 1.108-2.414 1.116-.934 2.91-.934 1.571 0 2.613.678 1.05.678 1.538 2.009l-2.1.769q-.388-.827-.918-1.2-.529-.38-1.306-.38-.752 0-1.19.356-.43.347-.43.95 0 .935 2.125 1.77.653.256 1.025.413 1.778.752 2.414 1.538.644.786.644 2.051 0 1.703-1.116 2.68-1.116.975-3.068.975-1.695 0-2.877-.744-1.174-.745-1.778-2.2zM78.438 17.8h3.241q0-.885-.43-1.381t-1.182-.496q-.711 0-1.14.496-.423.488-.489 1.381zm5.201 3.845q-.504.943-1.406 1.43-.901.48-2.133.48-1.778 0-2.77-1.207t-.992-3.382q0-2.175.984-3.398.992-1.224 2.745-1.224 1.745 0 2.704 1.182.967 1.182.967 3.324 0 .074-.008.231-.009.149-.009.223l-5.316.008q.017 1.257.488 1.893.472.629 1.397.629.58 0 1-.265.43-.273.81-.876zM87.418 21.1q.438.389.81.57.38.174.777.174.877 0 1.373-.769.497-.769.497-2.133 0-1.356-.497-2.1-.487-.744-1.389-.744-.396 0-.777.19-.372.182-.794.596zm0 1.439v4.06h-2.051v-12.09h1.521l.223.967q.57-.611 1.124-.876.562-.265 1.282-.265 1.53 0 2.49 1.282.967 1.282.967 3.324 0 2.067-.951 3.34-.943 1.265-2.44 1.265-.669 0-1.181-.24t-.984-.768zM96.988 20.8q0 .645.182.843.182.19.678.19.198 0 .422-.016t.446-.05v1.728q-.347.075-.802.116-.446.042-.943.042-1.083 0-1.588-.497-.496-.504-.496-1.588v-5.25h-1.149V14.59h1.15v-2.844h2.1v2.844h1.727v1.728h-1.728zM104.468 19.1q-1.513.207-2.208.661-.695.447-.695 1.215 0 .455.248.703.248.248.703.248.496 0 .976-.231.488-.232.975-.703zm.231 4.316l-.181-.777q-.604.438-1.265.661-.662.215-1.381.215-1.108 0-1.745-.628-.629-.629-.629-1.736 0-1.455 1.215-2.29 1.224-.844 3.82-1.166V17q0-.487-.33-.752-.323-.265-.927-.265t-1.1.257q-.487.256-.843.76l-1.422-.9q.554-.86 1.406-1.29.852-.439 1.993-.439 1.538 0 2.398.694.86.695.86 1.935v5.217q0 .207.033.505.033.29.1.694zM110.868 23.2q-.48.231-.695.446-.206.224-.206.488 0 .447.471.711.471.273 1.257.273 1.058 0 1.678-.306.628-.297.628-.794 0-.347-.28-.52-.273-.166-.902-.19zm-.455-5.771q0 .653.38 1.025.38.364 1.058.364.645 0 1.043-.389.396-.388.396-1.034 0-.653-.413-1.05-.413-.405-1.075-.405-.628 0-1.009.413-.38.406-.38 1.075zm-.901 5.333q-.645-.314-.91-.62-.256-.306-.256-.736 0-.48.34-.91.346-.438.983-.76-.612-.372-.926-.96-.314-.586-.314-1.363 0-1.373.934-2.224.934-.86 2.44-.86.628 0 1.165.182.538.182 1.05.562.323-.422.728-.629.405-.215.901-.215.124 0 .182.008.058 0 .116.008V15.8h-.042q-.264-.033-.363-.033-.24 0-.422.058-.182.05-.356.166.207.29.306.686.1.397.1.91 0 1.297-.894 2.066-.893.761-2.423.761-.28 0-.52-.025-.24-.033-.447-.082-.281.115-.43.264-.149.15-.149.331.008.504 1.703.612l.637.05q1.893.14 2.571.644.678.496.678 1.654 0 1.331-1.075 2.034-1.067.711-3.092.711-1.844 0-2.803-.562-.95-.562-.95-1.654 0-.595.355-.984.363-.38 1.182-.645zM117.268 23.4v-8.872h2.001V16q.43-.81.984-1.215.554-.413 1.215-.413.116 0 .165.008.058 0 .108.016v2.183h-.1q-.702 0-1.29.364-.586.364-.95 1.025V23.4zM127.368 19.1q-1.513.207-2.208.661-.695.447-.695 1.215 0 .455.248.703.249.248.703.248.496 0 .976-.231.488-.232.975-.703zm.232 4.316l-.182-.777q-.604.438-1.265.661-.662.215-1.381.215-1.108 0-1.745-.628-.629-.629-.629-1.736 0-1.455 1.215-2.29 1.224-.844 3.82-1.166V17q0-.487-.33-.752-.323-.265-.927-.265-.603 0-1.1.257-.487.256-.843.76l-1.422-.9q.554-.86 1.406-1.29.852-.439 1.993-.439 1.538 0 2.398.694.86.695.86 1.935v5.217q0 .207.033.505.033.29.1.694zM131.668 23.4v-8.872h1.935v1.034q.53-.612 1.149-.91.62-.297 1.356-.297.785 0 1.315.322.537.323.868 1 .695-.694 1.373-1.009.678-.314 1.488-.314 1.1 0 1.736.604.637.603.637 1.654V23.4h-2.1v-6.11q0-.58-.256-.893-.248-.315-.712-.315-.487 0-.959.232-.463.231-.9.686v6.4h-2.052v-5.879q0-.744-.223-1.09-.223-.348-.695-.348-.512 0-1.008.248-.488.24-.869.686V23.4zM151.368 23.4V11.09h2.332V23.4zM156.468 23.4v-8.872h1.935v1.05q.827-.67 1.447-.943.628-.28 1.29-.28 1.24 0 1.86.727.628.727.628 2.158v6.16h-2.1v-5.755q0-.86-.231-1.215-.232-.364-.777-.364-.463 0-.951.24-.48.24-1.017.744v6.35zM168.168 20.8q0 .645.182.843.182.19.678.19.198 0 .422-.016t.446-.05v1.728q-.347.075-.802.116-.446.042-.942.042-1.083 0-1.588-.497-.497-.504-.497-1.588v-5.25h-1.149V14.59h1.15v-2.844h2.1v2.844h1.727v1.728h-1.728zM172.768 17.8h3.241q0-.885-.43-1.381t-1.182-.496q-.711 0-1.14.496-.423.488-.489 1.381zm5.201 3.845q-.504.943-1.406 1.43-.901.48-2.133.48-1.778 0-2.77-1.207t-.992-3.382q0-2.175.984-3.398.992-1.224 2.745-1.224 1.745 0 2.704 1.182.967 1.182.967 3.324 0 .074-.008.231-.008.149-.008.223l-5.316.008q.017 1.257.488 1.893.471.629 1.397.629.579 0 1-.265.43-.273.81-.876zM179.668 23.4v-8.872h2.001V16q.43-.81.984-1.215.554-.413 1.215-.413.116 0 .165.008.058 0 .108.016v2.183h-.1q-.702 0-1.29.364-.586.364-.95 1.025V23.4zM185.468 23.4v-8.872h1.935v1.05q.827-.67 1.447-.943.628-.28 1.29-.28 1.24 0 1.86.727.628.727.628 2.158v6.16h-2.1v-5.755q0-.86-.231-1.215-.232-.364-.777-.364-.463 0-.951.24-.48.24-1.017.744v6.35zM196.268 17.8h3.241q0-.885-.43-1.381t-1.182-.496q-.711 0-1.14.496-.423.488-.489 1.381zm5.201 3.845q-.504.943-1.406 1.43-.901.48-2.133.48-1.778 0-2.77-1.207t-.992-3.382q0-2.175.984-3.398.992-1.224 2.745-1.224 1.745 0 2.704 1.182.967 1.182.967 3.324 0 .074-.008.231-.008.149-.008.223l-5.316.008q.017 1.257.488 1.893.471.629 1.397.629.579 0 1-.265.43-.273.81-.876zM205.568 20.8q0 .645.182.843.182.19.678.19.198 0 .422-.016.223-.016.446-.05v1.728q-.347.075-.802.116-.446.042-.943.042-1.083 0-1.588-.497-.496-.504-.496-1.588v-5.25h-1.149V14.59h1.15v-2.844h2.1v2.844h1.727v1.728h-1.728zM214.068 23.4V11.09h2.315v4.878h4.696V11.09h2.315V23.4h-2.315v-5.35h-4.696v5.35zM230.268 19.1q-1.513.207-2.208.661-.695.447-.695 1.215 0 .455.248.703.248.248.703.248.496 0 .976-.231.488-.232.976-.703zm.232 4.316l-.182-.777q-.604.438-1.265.661-.662.215-1.381.215-1.108 0-1.745-.628-.629-.629-.629-1.736 0-1.455 1.215-2.29 1.224-.844 3.82-1.166V17q0-.487-.33-.752-.323-.265-.926-.265t-1.1.257q-.488.256-.844.76l-1.422-.9q.554-.86 1.406-1.29.852-.439 1.993-.439 1.538 0 2.398.694t.86 1.935v5.217q0 .207.033.505.033.29.1.694zM233.768 23.4v-1.505l4.217-5.689h-3.861v-1.678h6.466v1.488l-4.2 5.622h4.2v1.761zM246.568 19.1q-1.513.207-2.208.661-.695.447-.695 1.215 0 .455.248.703.248.248.703.248.496 0 .976-.231.488-.232.975-.703zm.231 4.316l-.181-.777q-.604.438-1.265.661-.662.215-1.381.215-1.108 0-1.745-.628-.629-.629-.629-1.736 0-1.455 1.215-2.29 1.224-.844 3.82-1.166V17q0-.487-.33-.752-.323-.265-.927-.265t-1.1.257q-.487.256-.843.76l-1.422-.9q.554-.86 1.406-1.29.852-.439 1.993-.439 1.538 0 2.398.694.86.695.86 1.935v5.217q0 .207.033.505.033.29.1.694zM250.868 23.4v-8.872h2.001V16q.43-.81.984-1.215.554-.413 1.215-.413.116 0 .165.008.058 0 .108.016v2.183h-.1q-.702 0-1.29.364-.586.364-.95 1.025V23.4zM261.568 21.1v-4.217q-.438-.397-.81-.57-.364-.174-.761-.174-.876 0-1.373.76-.496.761-.496 2.118 0 1.364.496 2.108.496.735 1.389.735.405 0 .769-.173t.785-.587zm.306 1.406q-.471.57-1.058.843-.579.273-1.331.273-1.53 0-2.505-1.282-.968-1.282-.968-3.324 0-2.059.943-3.332.95-1.273 2.447-1.273.67 0 1.182.24t.984.777v-4.283h2.051v10.24q0 .323.025.844t.074 1.224h-1.62zM277.768 19.8l2.133.587q-.455 1.596-1.621 2.447-1.166.843-2.91.843-2.398 0-3.621-1.596-1.224-1.596-1.224-4.705 0-3.05 1.298-4.705 1.298-1.662 3.679-1.662 1.662 0 2.729.827 1.067.827 1.422 2.39l-2.133.521q-.232-.885-.777-1.339-.538-.455-1.373-.455-1.257 0-1.877 1.108-.62 1.1-.62 3.332 0 2.166.62 3.2.62 1.034 1.926 1.034.851 0 1.48-.488.628-.496.868-1.339zM285.868 19.1q-1.513.207-2.208.661-.695.447-.695 1.215 0 .455.248.703.248.248.703.248.496 0 .976-.231.488-.232.975-.703zm.232 4.316l-.182-.777q-.604.438-1.265.661-.662.215-1.381.215-1.108 0-1.745-.628-.629-.629-.629-1.736 0-1.455 1.215-2.29 1.224-.844 3.82-1.166V17q0-.487-.33-.752-.323-.265-.926-.265t-1.1.257q-.488.256-.844.76l-1.422-.9q.554-.86 1.406-1.29.852-.439 1.993-.439 1.538 0 2.398.694.86.695.86 1.935v5.217q0 .207.033.505.033.29.1.694zM292.568 20.8q0 .645.182.843.182.19.678.19.198 0 .422-.016t.446-.05v1.728q-.347.075-.802.116-.446.042-.943.042-1.083 0-1.588-.497-.496-.504-.496-1.588v-5.25h-1.149V14.59h1.15v-2.844h2.1v2.844h1.727v1.728h-1.728zM300.068 19.1q-1.513.207-2.208.661-.695.447-.695 1.215 0 .455.248.703.248.248.703.248.496 0 .976-.231.488-.232.975-.703zm.232 4.316l-.182-.777q-.604.438-1.265.661-.662.215-1.381.215-1.108 0-1.745-.628-.629-.629-.629-1.736 0-1.455 1.215-2.29 1.224-.844 3.82-1.166V17q0-.487-.33-.752-.323-.265-.926-.265-.604 0-1.1.257-.488.256-.844.76l-1.422-.9q.554-.86 1.406-1.29.852-.439 1.993-.439 1.538 0 2.398.694.86.695.86 1.935v5.217q0 .207.033.505.033.29.1.694zM304.368 23.4V11.09h2.1V23.4zM310.168 19q0 1.414.422 2.117.421.695 1.257.695.843 0 1.257-.695.421-.695.421-2.117 0-1.414-.413-2.1-.413-.686-1.265-.686-.843 0-1.265.694-.413.695-.413 2.092zm-2.117 0q0-2.166 1-3.382 1.009-1.224 2.795-1.224t2.786 1.224q1.009 1.215 1.009 3.382 0 2.166-1.009 3.39-1.009 1.215-2.786 1.215t-2.786-1.224q-1.009-1.224-1.009-3.382zM319.268 23.2q-.48.231-.695.446-.206.224-.206.488 0 .447.471.711.471.273 1.257.273 1.058 0 1.678-.306.628-.297.628-.794 0-.347-.28-.52-.273-.166-.902-.19zm-.455-5.771q0 .653.38 1.025.38.364 1.058.364.645 0 1.042-.389.397-.388.397-1.034 0-.653-.413-1.05-.413-.405-1.075-.405-.628 0-1.009.413-.38.406-.38 1.075zm-.901 5.333q-.645-.314-.91-.62-.256-.306-.256-.736 0-.48.34-.91.346-.438.983-.76-.612-.372-.926-.96t-.314-1.363q0-1.373.934-2.224.935-.86 2.44-.86.628 0 1.165.182.538.182 1.05.562.323-.422.728-.629.405-.215.901-.215.124 0 .182.008.058 0 .116.008V15.8h-.042q-.264-.033-.363-.033-.24 0-.422.058-.182.05-.356.166.207.29.306.686.1.397.1.91 0 1.297-.893 2.066-.893.761-2.423.761-.282 0-.521-.025-.24-.033-.447-.082-.281.115-.43.264-.149.15-.149.331.008.504 1.703.612l.637.05q1.893.14 2.57.644.679.496.679 1.654 0 1.331-1.075 2.034-1.067.711-3.092.711-1.844 0-2.803-.562-.95-.562-.95-1.654 0-.595.355-.984.363-.38 1.182-.645zM330.868 22.4q-.802.653-1.447.926-.637.273-1.315.273-1.232 0-1.852-.711-.62-.72-.62-2.15v-6.176h2.1v5.755q0 .86.231 1.232.24.364.786.364.455 0 .934-.24.48-.248 1.025-.76v-6.35h2.084v8.871h-1.926zM336.468 17.8h3.241q0-.885-.43-1.381t-1.182-.496q-.711 0-1.141.496-.422.488-.488 1.381zm5.201 3.845q-.504.943-1.406 1.43-.901.48-2.133.48-1.778 0-2.77-1.207t-.992-3.382q0-2.175.984-3.398.992-1.224 2.745-1.224 1.745 0 2.704 1.182.967 1.182.967 3.324 0 .074-.008.231-.008.149-.008.223l-5.316.008q.017 1.257.488 1.893.471.629 1.397.629.579 0 1-.265.43-.273.81-.876z"/></g><path d="M19.978 52.1c-1.143-.48-1.145-.638-.065-5.579 1.34-6.122 2.13-9.414 2.446-10.17.27-.65.443-.683 1.614-.313.425.134.157 1.919-1.253 8.352-.697 3.179-1.36 6.232-1.474 6.786-.237 1.148-.421 1.283-1.268.927zm22.38.164c-.5-.135-8.82-10.5-9.528-11.87l-.34-.656.553-.45c.303-.25.635-.455.737-.46.312-.01 2.034 1.995 6.395 7.452 3.968 4.964 4.162 5.245 3.839 5.56-.38.373-1.13.563-1.656.42zm-20.42-1.712c-.253-.659.157-2.003.956-3.137.943-1.336 6.77-8.835 8.37-10.77.934-1.13 1.167-1.308 1.718-1.308.35 0 .8.12 1 .265.348.255.343.294-.145 1.128-.797 1.359-8.294 10.9-10.23 13.02-1.02 1.116-1.47 1.332-1.671.805zm20.83-1.59c-.802-.828-1.128-1.949-3.138-10.81-1.432-6.315-1.42-6.226-.88-6.8.243-.259.637-.47.876-.47.575 0 .906 1.024 2.316 7.173 1.562 6.81 2.051 9.258 2.09 10.46.044 1.344-.283 1.46-1.264.448zm-13.68-13.09c-.951-.99-2.017-2.299-2.922-3.59-.435-.62-.438-.65-.122-1.599.176-.532.395-.967.487-.967.46 0 4.842 5.452 4.843 6.024 0 .337-.778 1.148-1.102 1.148-.113 0-.646-.458-1.183-1.018zM8.208 34.78c-.879-.188-.834-.692.116-1.322l.822-.544 5.927-.152c3.26-.084 7.087-.096 8.504-.028 2.42.116 2.596.152 2.874.577.455.694.28 1.322-.412 1.47-.759.16-17.08.16-17.83-.001zm23.38.016c-.64-.198-1.375-1.484-1.039-1.82.323-.323 7.087-.364 7.406-.045.116.116.26.517.321.892.089.546.04.71-.25.826-.496.199-5.875.322-6.438.147zm11.76-.008c-1.321-.158-1.559-.355-1.476-1.218.057-.594.132-.664.838-.788.426-.076 4.156-.142 8.287-.148l7.512-.012v.571c0 .317-.194.789-.436 1.062l-.436.491-6.591.088c-3.625.048-7.09.027-7.698-.046zm-38.04-.85c-.166-.238-.302-.619-.302-.847 0-.42.676-1.437.954-1.437.083 0 2.652-1.223 5.71-2.72 5.495-2.687 7.267-3.484 7.75-3.484.135 0 .39.3.565.668.318.667.318.669-.277 1.17-.458.386-13.73 7.08-14.03 7.08-.037 0-.203-.194-.369-.43zm18.52-1.646c-.446-.087-.458-.137-.346-1.34.064-.689.348-2.216.63-3.396l.512-2.144.803-.364c1.296-.589 1.358-.546 1.215.838-.157 1.505-.984 5.2-1.325 5.914-.256.536-.632.66-1.488.492zm11.85 0c-.24-.046-.436-.158-.436-.248 0-.694 4.254-6.012 4.809-6.012.273 0 .826.284 1.369.703.16.124-1.068 1.958-2.525 3.77-1.643 2.042-1.708 2.079-3.217 1.788zm14.59-1.877c-10.33-4.82-11.15-5.268-11.15-6.094 0-.298.112-.696.25-.883.236-.324.317-.317 1.502.134 3.099 1.178 15.04 7.078 15.62 7.718.529.585.046.946-1.258.94-.966-.004-1.538-.214-4.968-1.814zm-28.42-3.553c-1.068-1.11-7.998-9.79-9.547-11.96-1.485-2.079-1.435-2.685.175-2.142.49.165 1.143.665 1.81 1.384 1.433 1.55 9.045 11.06 9.444 11.8.284.527.29.67.053 1.167-.416.871-.919.806-1.936-.25zm15.28-.2c-.533-1.528-1.123-4.083-1.246-5.398l-.116-1.239.7-.292c.385-.161.75-.293.808-.293.254 0 1.026 2.59 1.552 5.207l.326 1.621-.637.657c-.35.362-.733.657-.85.657-.119 0-.36-.414-.537-.92zm-13.88-2.123l-.462-.712.462-.374c.254-.205 1.627-.947 3.051-1.649l2.59-1.275.851.452c.468.248.852.57.852.713 0 .304-.92.913-2.83 1.874-1.32.665-3.717 1.69-3.94 1.685-.062-.001-.32-.323-.574-.714zm19.74-1.176l-.607-.542.94-1.39c1.852-2.738 8.86-11.49 9.202-11.49.43 0 1.14.899 1.133 1.433-.01.568-8.958 11.94-9.715 12.35-.266.142-.487.06-.953-.357zm-8.808-.709c-1.337-.493-4.671-2.134-5.294-2.605-.374-.283-.399-.398-.222-1.038.11-.396.263-.76.341-.808.337-.208 5.49 2.04 6.29 2.743.344.304.492 1.867.193 2.05-.08.048-.669-.106-1.309-.342zm-8.01-1.684c-.303-.115-.418-.28-.353-.51.053-.188.156-.82.229-1.407.284-2.285 3.158-14.8 3.75-16.33.228-.589.798-.71 1.18-.25.653.787.515 1.816-1.455 10.86-1.52 6.975-1.615 7.289-2.32 7.572-.37.149-.743.172-1.03.063zm7.648-1.35c-.822-.647-.655-.998.895-1.88 2.876-1.636 13.8-6.814 15.4-7.3.731-.222.761.523.062 1.539-.579.841-.923 1.039-7.301 4.187-6 2.962-7.945 3.855-8.397 3.855-.079 0-.373-.18-.654-.402zm-9.985-1.933c-1.781-.627-13.79-6.428-13.79-6.662 0-.4.555-1.026 1.114-1.257.603-.25.52-.284 7.9 3.264 4.561 2.193 5.659 2.76 6.237 3.221.487.388.492.414.186 1.005-.173.334-.381.649-.464.7-.083.051-.616-.071-1.185-.271zm10.96-1.772c-.358-.556-.536-1.249-2.348-9.158-.801-3.495-1.408-6.433-1.349-6.529.213-.345 1.413-.18 1.903.263.4.36.606.988 1.196 3.635l1.449 6.494c.833 3.733 1.068 5.246.835 5.384-.089.052-.439.154-.778.227-.514.11-.666.057-.907-.316z"/><g stroke-dasharray="5.55624999, 2.77812499" stroke-linecap="round" stroke-linejoin="round" stroke-miterlimit="10" stroke-width="2.778" aria-label="Entry 44 - [One World Story]" paint-order="stroke fill markers"><path d="M66.398 30.3h6.298v1.275h-4.83v2.977h3.459v1.254h-3.459v3.418h5.057v1.309h-6.525zM80.008 35.2v5.319h-1.344v-4.954q0-.73-.269-1.075-.261-.351-.82-.351-.434 0-.902.248-.462.24-.944.73v5.402h-1.323v-7.393h1.226v1.013q.661-.593 1.213-.848.558-.261 1.144-.261.957 0 1.488.565.53.565.53 1.605zM82.208 30.8h1.33v2.37h1.619v1.13h-1.619v4.286q0 .551.18.751.185.193.654.193.248 0 .434-.014.186-.02.351-.069v1.116q-.234.07-.537.104-.303.034-.69.034-.881 0-1.301-.379-.42-.386-.42-1.185V34.3h-1.04v-1.13h1.04zM90.008 33.1v1.378h-.117q-.655 0-1.192.468-.53.469-.868 1.337v4.293h-1.364v-7.393h1.309v1.481q.372-.799.868-1.185.496-.392 1.137-.392.09 0 .138.007.048 0 .09.007zM90.808 33.2h1.344l1.915 5.443 1.75-5.443h1.33l-2.439 7.283q-.551 1.661-1.144 2.226-.586.565-1.585.565-.262 0-.448-.02-.18-.021-.338-.063v-1.17q.131.034.283.047.159.021.365.021.669 0 1.034-.379.365-.372.558-1.275zM106.508 31.7l-3.342 5.305h3.342zm-.351-1.399h1.654v6.69h1.592v1.144h-1.592v2.508h-1.316v-2.508h-4.568v-1.199zM115.108 31.7l-3.342 5.305h3.342zm-.351-1.399h1.654v6.69h1.592v1.144h-1.592v2.508h-1.316v-2.508h-4.568v-1.199zM123.408 36.3h3.314v1.199h-3.314zM132.908 30.3h3.018v.737h-1.778v9.805h1.778v.737h-3.018zM141.108 31.5q-1.261 0-1.943 1.034-.682 1.027-.682 2.935 0 1.902.682 2.935.689 1.027 1.943 1.027t1.936-1.034q.689-1.04.689-2.928 0-1.902-.689-2.935-.682-1.034-1.936-1.034zm0-1.295q1.909 0 3.018 1.412 1.116 1.406 1.116 3.852 0 2.432-1.116 3.859-1.116 1.419-3.018 1.419t-3.018-1.419q-1.116-1.419-1.116-3.859 0-2.446 1.109-3.852 1.116-1.412 3.025-1.412zM152.508 35.2v5.319h-1.344v-4.954q0-.73-.269-1.075-.262-.351-.82-.351-.434 0-.902.248-.462.24-.944.73v5.402h-1.323v-7.393h1.226v1.013q.661-.593 1.213-.848.558-.261 1.144-.261.957 0 1.488.565.53.565.53 1.605zM158.508 36.1q-.02-.916-.441-1.433-.413-.524-1.123-.524-.744 0-1.171.517-.427.51-.469 1.447zm1.357 1.034h-4.575v.145q0 1.109.482 1.723.483.606 1.371.606.58 0 1.027-.29t.765-.868l.985.607q-.454.826-1.178 1.254-.723.42-1.674.42-1.516 0-2.322-.965t-.806-2.784q0-1.874.793-2.894t2.253-1.02q1.35 0 2.122.986.771.978.771 2.7 0 .063-.007.194-.007.124-.007.186zM164.908 30.3h1.468l1.55 5.815q.172.655.282 1.144.11.49.186.93l.056.014q.11-.668.392-1.695l.104-.365 1.578-5.843h1.309l1.57 5.815q.118.44.228.944.11.496.22 1.13l.076.014q.104-.552.22-1.061.125-.517.256-1l1.57-5.843h1.469l-2.825 10.23h-1.344l-1.578-5.746q-.145-.523-.276-1.054-.13-.537-.248-1.102-.179.807-.31 1.357-.13.552-.2.786l-1.592 5.76h-1.337zM180.608 34.2q-.861 0-1.309.675-.441.675-.441 1.991 0 1.323.441 2.005.448.682 1.309.682.854 0 1.302-.682.448-.682.448-1.99 0-1.324-.448-1.999-.441-.682-1.302-.682zm0-1.158q1.474 0 2.288 1.006.82 1.006.82 2.818 0 1.819-.82 2.832-.813 1.006-2.288 1.006t-2.301-1.006q-.82-1.013-.82-2.832 0-1.812.82-2.818.827-1.006 2.301-1.006zM188.808 33.1v1.378h-.117q-.655 0-1.192.468-.53.469-.868 1.337v4.293h-1.364v-7.393h1.309v1.481q.372-.799.868-1.185.496-.392 1.137-.392.09 0 .138.007.048 0 .09.007zM190.008 30.3h1.323v10.23h-1.323zM197.708 35.1q-.372-.455-.772-.675-.392-.228-.84-.228-.855 0-1.323.696-.469.696-.469 1.971 0 1.357.462 2.053.461.69 1.364.69.448 0 .833-.221.393-.228.745-.682zm0-4.727h1.323v8.186q0 .551.028 1.068.027.517.069.978h-1.04l-.228-.875q-.393.51-.889.758-.496.241-1.123.241-1.337 0-2.122-1.034t-.785-2.804q0-1.778.778-2.784.786-1.013 2.157-1.013.593 0 1.047.228.455.227.786.682zM211.608 32.6l-1.323.434q-.283-.779-.813-1.178-.524-.4-1.275-.4-.655 0-1.061.359-.407.351-.407.91 0 .606.4 1.02.4.406 1.516.874l.386.159q1.295.53 1.805.95.51.428.75.945.249.516.249 1.164 0 1.302-.903 2.108-.902.799-2.384.799-1.364 0-2.315-.668-.95-.676-1.385-1.943l1.371-.538q.331.903.937 1.392.614.483 1.433.483.793 0 1.282-.441.496-.448.496-1.151 0-.586-.406-.979-.407-.4-1.95-1.027-1.599-.661-2.205-1.309-.6-.654-.6-1.626 0-1.185.869-1.95.875-.772 2.246-.772 1.24 0 2.088.62.854.614 1.199 1.765zM213.608 30.8h1.33v2.37h1.619v1.13h-1.619v4.286q0 .551.18.751.185.193.654.193.248 0 .434-.014.186-.02.351-.069v1.116q-.234.07-.537.104-.303.034-.69.034-.881 0-1.301-.379-.42-.386-.42-1.185V34.3h-1.04v-1.13h1.04zM220.408 34.2q-.861 0-1.309.675-.441.675-.441 1.991 0 1.323.441 2.005.448.682 1.309.682.854 0 1.302-.682t.448-1.99q0-1.324-.448-1.999-.441-.682-1.302-.682zm0-1.158q1.474 0 2.288 1.006.82 1.006.82 2.818 0 1.819-.82 2.832-.813 1.006-2.288 1.006-1.475 0-2.301-1.006-.82-1.013-.82-2.832 0-1.812.82-2.818.827-1.006 2.301-1.006zM228.608 33.1v1.378h-.117q-.655 0-1.192.468-.53.469-.868 1.337v4.293h-1.364v-7.393h1.309v1.481q.372-.799.868-1.185.496-.392 1.137-.392.09 0 .138.007.048 0 .09.007zM229.308 33.2h1.344l1.915 5.443 1.75-5.443h1.33l-2.439 7.283q-.551 1.661-1.144 2.226-.586.565-1.585.565-.262 0-.448-.02-.179-.021-.338-.063v-1.17q.131.034.283.047.158.021.365.021.669 0 1.034-.379.365-.372.558-1.275zM236.208 30.3h3.025v11.28h-3.025v-.737h1.778v-9.805h-1.778z"/></g></g></svg>