<?xml version="1.0" encoding="UTF-8"?>
<svg width="288.7mm" height="71.45mm" version="1.1" viewBox="0 0 1023 253.2" xmlns="http://www.w3.org/2000/svg"><rect width="1023" height="253.2" ry="0" fill="#252525" style="paint-order:stroke fill markers"/><path d="m205 138.3c-2.412 12.41-21.6 25.98-43.63 28.61-11.49 1.372-22.8 2.631-34.87 2.079-19.73-0.9038-35.3-4.71-35.3-4.71 0 1.921 0.1188 3.75 0.355 5.46 2.565 19.47 19.31 20.64 35.17 21.18 16.01 0.5475 30.26-3.948 30.26-3.948l0.6588 14.47s-11.2 6.011-31.14 7.116c-11 0.605-24.65-0.2762-40.56-4.485-34.5-9.131-40.43-45.9-41.34-83.21-0.2775-11.08-0.1062-21.52-0.1062-30.26 0-38.15 25-49.34 25-49.34 12.6-5.789 34.23-8.222 56.72-8.406h0.5525c22.48 0.1838 44.12 2.618 56.73 8.406 0 0 25 11.18 25 49.34 0 0 0.3125 28.15-3.486 47.69" fill="#3088d4"/><path d="m79.14 81.33c0-5.554 4.502-10.06 10.06-10.06 5.554 0 10.06 4.501 10.06 10.06 0 5.552-4.501 10.06-10.06 10.06-5.552 0-10.06-4.502-10.06-10.06" fill="#ebebeb"/><g transform="translate(44.48 32.84)" fill="#fff" stroke-linecap="round" stroke-linejoin="round" stroke-width="9.797" style="paint-order:stroke fill markers" aria-label="one world story"><path d="m67.48 80.67q0-4.095 1.035-7.875 1.08-3.825 3.015-7.11t4.635-5.94q2.7-2.7 5.985-4.59 3.285-1.935 7.02-2.97 3.78-1.08 7.875-1.08 4.05 0 7.83 1.08 3.78 1.035 7.02 2.97 3.285 1.89 5.985 4.59 2.7 2.655 4.635 5.94t2.97 7.11q1.08 3.78 1.08 7.875t-1.08 7.875q-1.035 3.78-2.97 7.065-1.935 3.24-4.635 5.94-2.7 2.7-5.985 4.635-3.24 1.89-7.02 2.97-3.78 1.035-7.83 1.035-4.095 0-7.875-1.035-3.735-1.08-7.02-2.97-3.285-1.935-5.985-4.635-2.7-2.7-4.635-5.94-1.935-3.285-3.015-7.065-1.035-3.78-1.035-7.875zm12.69 0q0 3.6 1.26 6.84 1.26 3.195 3.51 5.58t5.31 3.78q3.105 1.395 6.75 1.395 3.555 0 6.57-1.395 3.06-1.395 5.265-3.78t3.42-5.58q1.26-3.24 1.26-6.84 0-3.555-1.26-6.795-1.215-3.24-3.42-5.67-2.205-2.475-5.265-3.915-3.015-1.485-6.57-1.485-3.645 0-6.75 1.485-3.06 1.44-5.31 3.915-2.25 2.43-3.51 5.67t-1.26 6.795z"/><path d="m136.9 54.66q0-0.63 0.54-1.35t1.035-0.9q0.36-0.36 1.08-0.36 0.72-0.045 1.35-0.045h4.545q1.305 0 1.935 0.855t0.855 1.89l0.495 4.77q1.035-1.53 2.52-3.015 1.53-1.485 3.6-2.655t4.725-1.89 5.985-0.72q5.31 0 9.45 1.935 4.14 1.89 6.975 5.22t4.275 7.83q1.485 4.5 1.485 9.675v30.02q0 1.62-0.765 2.43t-2.205 0.81h-6.84q-1.8 0-2.43-0.675-0.585-0.675-0.585-2.385v-29.97q0-2.385-0.81-4.635-0.81-2.295-2.385-4.095-1.53-1.8-3.825-2.88t-5.31-1.08q-2.07 0-4.32 0.855-2.205 0.81-4.05 2.34t-3.06 3.735q-1.215 2.16-1.26 4.905v29.16q0 0.855-0.09 1.71t-0.405 1.53q-0.27 0.675-0.81 1.08t-1.395 0.405h-7.425q-1.485 0-2.205-0.675-0.675-0.72-0.675-2.025z"/><path d="m244.8 102.9q-3.96 3.375-8.685 5.31-4.68 1.935-10.3 1.935-6.075 0-11.52-2.295t-9.54-6.3q-4.095-4.005-6.525-9.36-2.385-5.4-2.385-11.61 0-4.005 0.99-7.74t2.79-6.975q1.845-3.285 4.455-5.985 2.61-2.745 5.805-4.68 3.24-1.935 6.975-2.97 3.78-1.08 7.965-1.08 3.42 0 6.75 0.855 3.33 0.81 6.3 2.34 3.015 1.53 5.625 3.735 2.61 2.16 4.59 4.905 2.7 3.78 3.96 8.145t1.26 9.675q0 1.305-0.135 2.205-0.09 0.855-0.54 1.395t-1.35 0.81q-0.9 0.225-2.52 0.225h-39.92q0.585 3.24 2.205 5.76 1.665 2.475 3.915 4.23 2.25 1.71 4.905 2.61 2.655 0.855 5.31 0.855 2.025 0 3.87-0.405 1.89-0.405 3.51-1.08t2.97-1.53q1.395-0.9 2.43-1.845 0-0.045 0.045-0.045 0.54-0.495 1.035-0.765 0.495-0.315 1.035-0.315 0.405 0 0.9 0.27 0.54 0.27 1.035 0.9 1.215 1.485 2.07 2.475t1.395 1.665 0.765 1.17q0.27 0.495 0.27 0.99 0 1.26-1.71 2.52zm-19.98-40.59q-2.655 0-5.175 0.99-2.52 0.945-4.635 2.61-2.07 1.665-3.645 3.915-1.53 2.25-2.25 4.86h31.86q-0.72-2.745-2.205-4.995-1.44-2.295-3.51-3.915-2.07-1.665-4.725-2.565t-5.715-0.9z"/><path d="m287.8 55.65t-0.045-0.18-0.135-0.45q-0.045-0.27-0.09-0.585t-0.045-0.54q0-0.855 0.585-1.35 0.63-0.54 1.845-0.54h8.1q2.115 0 2.835 2.07 0.81 2.34 1.935 5.535 1.17 3.195 2.43 6.75 1.305 3.555 2.655 7.2 1.35 3.6 2.52 6.84 1.215 3.195 2.16 5.76 0.99 2.52 1.53 3.825 2.025-5.715 5.175-14.62t7.695-21.33q0.405-1.08 1.08-1.53 0.72-0.495 1.8-0.495h7.83q1.395 0 1.89 0.45 0.54 0.45 0.54 1.17 0 0.36-0.135 0.9-0.09 0.54-0.18 0.81l-4.68 11.38q0.9 2.25 2.07 5.04 1.215 2.745 2.52 5.805 1.35 3.015 2.655 6.165 1.35 3.15 2.52 6.12 0.81-2.16 1.89-4.995 1.125-2.835 2.295-6.03 1.215-3.195 2.475-6.57 1.305-3.375 2.52-6.615 1.26-3.285 2.385-6.255t2.025-5.355q0.405-1.08 1.035-1.53 0.63-0.495 1.665-0.495h7.47q1.305 0 1.98 0.405 0.675 0.36 0.675 1.305 0 0.315-0.09 0.855t-0.18 0.765l-21.24 52.02q-0.18 0.315-0.405 0.63-0.18 0.315-0.54 0.585-0.315 0.27-0.855 0.45-0.495 0.135-1.215 0.135h-3.87q-1.575 0-2.16-0.585t-0.945-1.26q-2.655-6.435-5.265-12.74-2.61-6.345-5.22-12.78l-10.35 25.56q-0.36 0.63-0.9 1.215-0.495 0.585-1.89 0.585h-4.14q-1.62 0-2.205-0.54-0.54-0.585-0.81-1.26z"/><path d="m377 80.67q0-4.095 1.035-7.875 1.08-3.825 3.015-7.11t4.635-5.94q2.7-2.7 5.985-4.59 3.285-1.935 7.02-2.97 3.78-1.08 7.875-1.08 4.05 0 7.83 1.08 3.78 1.035 7.02 2.97 3.285 1.89 5.985 4.59 2.7 2.655 4.635 5.94t2.97 7.11q1.08 3.78 1.08 7.875t-1.08 7.875q-1.035 3.78-2.97 7.065-1.935 3.24-4.635 5.94-2.7 2.7-5.985 4.635-3.24 1.89-7.02 2.97-3.78 1.035-7.83 1.035-4.095 0-7.875-1.035-3.735-1.08-7.02-2.97-3.285-1.935-5.985-4.635-2.7-2.7-4.635-5.94-1.935-3.285-3.015-7.065-1.035-3.78-1.035-7.875zm12.69 0q0 3.6 1.26 6.84 1.26 3.195 3.51 5.58t5.31 3.78q3.105 1.395 6.75 1.395 3.555 0 6.57-1.395 3.06-1.395 5.265-3.78t3.42-5.58q1.26-3.24 1.26-6.84 0-3.555-1.26-6.795-1.215-3.24-3.42-5.67-2.205-2.475-5.265-3.915-3.015-1.485-6.57-1.485-3.645 0-6.75 1.485-3.06 1.44-5.31 3.915-2.25 2.43-3.51 5.67t-1.26 6.795z"/><path d="m446.4 54.66q0-1.305 0.855-1.98 0.9-0.675 1.935-0.675h5.715q1.125 0 1.71 0.675t0.9 1.665 0.45 2.16q0.135 1.125 0.315 2.07 0.99-1.395 2.205-2.7 1.26-1.35 2.835-2.385t3.555-1.665 4.5-0.63q2.25 0 4.05 0.315 1.8 0.27 3.42 0.9 1.665 0.585 3.24 1.575 1.575 0.945 3.375 2.25 0.765 0.495 1.305 1.125 0.585 0.63 0.585 1.485-0.045 0.36-0.135 0.765t-0.36 0.81l-3.69 5.85q-0.36 0.45-0.855 0.675-0.45 0.18-0.81 0.18-0.72 0-1.395-0.36-1.485-0.81-2.7-1.53t-2.385-1.215q-1.17-0.54-2.43-0.81-1.215-0.315-2.745-0.315-4.005 0-6.795 2.565-2.745 2.565-3.69 7.065v33.93q0 2.7-2.79 2.7h-7.38q-2.79 0-2.79-2.7z"/><path d="m495.7 37.74q0-1.17 0.63-1.935t1.935-0.765h7.875q0.9 0 1.665 0.765 0.81 0.765 0.81 1.935v68.72q0 1.35-0.765 2.025-0.72 0.675-1.98 0.675h-7.515q-1.44 0-2.07-0.675-0.585-0.675-0.585-2.025z"/><path d="m565.3 102.6q-1.575 1.575-3.51 2.97-1.89 1.395-4.095 2.43-2.16 0.99-4.635 1.575-2.43 0.585-5.085 0.585-6.075 0-11.34-2.295-5.22-2.34-9.135-6.345-3.87-4.005-6.075-9.36-2.205-5.4-2.205-11.52 0-6.165 2.205-11.52 2.205-5.4 6.075-9.405 3.915-4.005 9.135-6.3 5.265-2.34 11.34-2.34 5.49 0 9.675 1.98 4.185 1.935 7.425 5.31v-20.66q0-1.17 0.72-1.935t2.07-0.765h7.38q1.035 0 1.935 0.765 0.9 0.72 0.9 1.935v68.72q0 2.7-2.88 2.7h-6.75q-1.35 0-1.845-0.675t-0.9-2.025zm-33.44-21.96q0 3.6 1.26 6.84 1.26 3.195 3.51 5.58t5.265 3.78q3.06 1.395 6.66 1.395 3.555 0 6.705-1.35 3.15-1.395 5.49-3.735 2.34-2.385 3.69-5.49 1.395-3.15 1.485-6.705v-0.315q0-3.555-1.35-6.795t-3.69-5.67q-2.34-2.475-5.535-3.915-3.15-1.485-6.795-1.485-3.6 0-6.66 1.485-3.015 1.44-5.265 3.915-2.25 2.43-3.51 5.67t-1.26 6.795z"/><path d="m624.6 93.04q0.945 1.485 2.385 2.565t2.925 1.8q1.53 0.675 2.88 0.99 1.395 0.315 2.205 0.315 1.26 0 2.97-0.27t3.195-0.945q1.53-0.72 2.565-1.89 1.08-1.215 1.08-3.06 0-1.8-0.855-2.925-0.81-1.125-2.25-1.845-1.395-0.765-3.24-1.26-1.8-0.495-3.825-1.08-4.725-1.26-8.055-3.015-3.33-1.8-5.49-4.095-2.115-2.295-3.105-5.04t-0.99-5.985q0-3.645 1.44-6.66t4.05-5.175 6.255-3.33q3.69-1.215 8.145-1.215 3.15 0 5.625 0.585 2.475 0.54 4.59 1.665t3.96 2.835q1.89 1.71 3.825 4.005 0.675 0.81 0.675 1.575 0 0.81-0.9 1.53-0.675 0.54-1.62 1.35-0.9 0.81-1.8 1.575t-1.71 1.305-1.35 0.54q-0.99 0-1.935-1.17-0.99-1.17-1.98-2.025-0.99-0.9-2.07-1.44-1.08-0.585-2.34-0.855-1.26-0.315-2.745-0.315-1.215 0-2.565 0.36-1.305 0.36-2.43 1.08-1.08 0.72-1.845 1.755-0.72 0.99-0.72 2.25 0 1.44 0.9 2.475 0.945 0.99 2.34 1.755 1.44 0.72 3.105 1.215t3.105 0.9q4.14 1.17 7.605 2.7t5.94 3.735q2.52 2.16 3.915 5.13 1.395 2.925 1.395 6.885 0 4.185-1.665 7.515-1.665 3.285-4.635 5.58-2.925 2.295-6.975 3.51-4.005 1.215-8.73 1.215-2.835 0-5.76-0.63-2.925-0.585-5.625-1.845-2.655-1.305-4.95-3.285-2.25-2.025-3.78-4.77-0.675-1.125-0.675-2.025 0-0.585 0.27-0.99 0.315-0.45 0.81-0.855l5.04-3.87q0.675-0.405 1.215-0.405 0.63 0 1.125 0.45 0.495 0.405 1.08 1.125z"/><path d="m688.5 109.2q-3.555-0.045-6.705-1.08-3.105-1.035-5.445-2.97-2.295-1.98-3.645-4.815-1.35-2.88-1.35-6.525v-30.38h-5.175q-1.305 0-1.98-0.585-0.63-0.585-0.63-1.935v-6.48q0-1.305 0.63-1.845 0.675-0.54 1.98-0.54h5.175q0-2.385 0-4.725 0.045-2.385 0.045-4.77 0-0.9 0.54-1.395 0.585-0.54 1.755-0.945 0.765-0.27 1.845-0.63 1.08-0.405 2.205-0.765 1.17-0.36 2.25-0.585 1.08-0.27 1.8-0.27 1.395 0 1.8 0.765 0.45 0.765 0.45 2.025 0 2.835-0.045 5.67 0 2.79 0 5.625h6.48q1.17 0 1.8 0.63 0.63 0.585 0.63 1.89v6.165q0 1.44-0.63 2.07t-1.8 0.63h-6.48q0 2.925 0 4.95t0 3.6q0 1.53 0 2.88 0.045 1.35 0.045 2.925t0 3.6 0 4.95q0 0.09-0.045 0.18 0 0.09 0 0.18v5.895q0 2.97 1.17 4.275t3.78 1.305q0.945 0 1.485 0.675t0.54 1.62v6.255q0 1.17-0.675 1.845-0.63 0.63-1.8 0.63z"/><path d="m699.8 80.67q0-4.095 1.035-7.875 1.08-3.825 3.015-7.11t4.635-5.94q2.7-2.7 5.985-4.59 3.285-1.935 7.02-2.97 3.78-1.08 7.875-1.08 4.05 0 7.83 1.08 3.78 1.035 7.02 2.97 3.285 1.89 5.985 4.59 2.7 2.655 4.635 5.94t2.97 7.11q1.08 3.78 1.08 7.875t-1.08 7.875q-1.035 3.78-2.97 7.065-1.935 3.24-4.635 5.94-2.7 2.7-5.985 4.635-3.24 1.89-7.02 2.97-3.78 1.035-7.83 1.035-4.095 0-7.875-1.035-3.735-1.08-7.02-2.97-3.285-1.935-5.985-4.635-2.7-2.7-4.635-5.94-1.935-3.285-3.015-7.065-1.035-3.78-1.035-7.875zm12.69 0q0 3.6 1.26 6.84 1.26 3.195 3.51 5.58t5.31 3.78q3.105 1.395 6.75 1.395 3.555 0 6.57-1.395 3.06-1.395 5.265-3.78t3.42-5.58q1.26-3.24 1.26-6.84 0-3.555-1.26-6.795-1.215-3.24-3.42-5.67-2.205-2.475-5.265-3.915-3.015-1.485-6.57-1.485-3.645 0-6.75 1.485-3.06 1.44-5.31 3.915-2.25 2.43-3.51 5.67t-1.26 6.795z"/><path d="m769.1 54.66q0-1.305 0.855-1.98 0.9-0.675 1.935-0.675h5.715q1.125 0 1.71 0.675t0.9 1.665 0.45 2.16q0.135 1.125 0.315 2.07 0.99-1.395 2.205-2.7 1.26-1.35 2.835-2.385t3.555-1.665 4.5-0.63q2.25 0 4.05 0.315 1.8 0.27 3.42 0.9 1.665 0.585 3.24 1.575 1.575 0.945 3.375 2.25 0.765 0.495 1.305 1.125 0.585 0.63 0.585 1.485-0.045 0.36-0.135 0.765t-0.36 0.81l-3.69 5.85q-0.36 0.45-0.855 0.675-0.45 0.18-0.81 0.18-0.72 0-1.395-0.36-1.485-0.81-2.7-1.53t-2.385-1.215q-1.17-0.54-2.43-0.81-1.215-0.315-2.745-0.315-4.005 0-6.795 2.565-2.745 2.565-3.69 7.065v33.93q0 2.7-2.79 2.7h-7.38q-2.79 0-2.79-2.7z"/><path d="m838.8 125.7q-0.405 0.99-1.035 1.44-0.63 0.495-1.665 0.495h-8.46q-1.26 0-1.755-0.45-0.45-0.405-0.45-1.035 0-0.315 0.09-0.9 0.135-0.585 0.225-0.675l7.92-20.2-20.07-48.92q0-0.09-0.045-0.135v-0.405q-0.225-0.495-0.225-1.125 0-0.765 0.54-1.215t1.665-0.45h8.145q1.935 0 2.655 1.89l0.81 2.115q0.9 2.52 2.025 5.67 1.125 3.105 2.34 6.435t2.43 6.705q1.26 3.33 2.34 6.3 1.125 2.925 2.025 5.31 0.9 2.34 1.44 3.69l13.32-36.22q0.405-0.99 1.035-1.44 0.63-0.495 1.665-0.495h8.46q1.26 0 1.71 0.45 0.495 0.405 0.495 1.035 0 0.315-0.135 0.9-0.09 0.585-0.18 0.675z"/></g></svg>
