<?xml version="1.0" encoding="UTF-8" standalone="no"?>
<!-- Created with Inkscape (http://www.inkscape.org/) -->

<svg
   width="1920"
   height="1080"
   viewBox="0 0 508 285.75"
   version="1.1"
   id="svg5"
   xmlns="http://www.w3.org/2000/svg"
   xmlns:svg="http://www.w3.org/2000/svg">
  <defs
     id="defs2" />
  <g
     id="layer1">
    <path
       style="color:#000000;overflow:visible;fill:#a9532e;fill-opacity:1;stroke:none;stroke-width:3.21699;stroke-linecap:round;stroke-linejoin:round;stroke-miterlimit:7.64;stroke-dasharray:none;stop-color:#000000"
       d="m 122.42126,155.22891 7.01146,12.76615 4.82864,2.51354 5.68854,-1.52136 9.59115,-13.22916 z"
       id="path6638" />
    <path
       style="color:#000000;overflow:visible;fill:#a9532e;fill-opacity:1;stroke:none;stroke-width:3.21699;stroke-linecap:round;stroke-linejoin:round;stroke-miterlimit:7.64;stroke-dasharray:none;stop-color:#000000"
       d="m 95.448433,142.51118 0.06615,12.36928 4.828637,2.51354 5.68854,-1.52136 9.59115,-13.22916 z"
       id="path6638-2" />
    <path
       style="color:#000000;overflow:visible;fill:#a9532e;fill-opacity:1;stroke:none;stroke-width:3.21699;stroke-linecap:round;stroke-linejoin:round;stroke-miterlimit:7.64;stroke-dasharray:none;stop-color:#000000"
       d="m 246.96107,131.61557 7.01146,12.76615 4.82864,2.51354 5.68854,-1.52136 0.0964,-13.18239 z"
       id="path6638-5" />
    <path
       style="color:#000000;overflow:visible;fill:#904727;fill-opacity:1;stroke:none;stroke-width:3.21699;stroke-linecap:round;stroke-linejoin:round;stroke-miterlimit:7.64;stroke-dasharray:none;stop-color:#000000"
       d="m 134.2595,170.5547 0.0702,-13.40022 15.43482,-1.56687 -9.77539,13.447 z"
       id="path7022" />
    <path
       style="color:#000000;overflow:visible;fill:#904727;fill-opacity:1;stroke:none;stroke-width:3.21699;stroke-linecap:round;stroke-linejoin:round;stroke-miterlimit:7.64;stroke-dasharray:none;stop-color:#000000"
       d="m 258.80209,146.91137 5.69451,-1.46162 0.0935,-9.49476 -10.5705,1.0056 z"
       id="path7024" />
    <path
       style="color:#000000;overflow:visible;fill:#2c7830;fill-opacity:1;stroke:none;stroke-width:0.529167;stroke-linecap:round;stroke-linejoin:round;stroke-miterlimit:7.64;stop-color:#000000"
       d="M 96.273303,146.29767 134.2882,159.91002 264.59428,138.11758 265.22351,99.104873 222.98595,90.059587 219.36784,66.069913 213.6857,65.284202 93.127113,75.508475 Z"
       id="path977" />
    <path
       style="color:#000000;overflow:visible;fill:#338c38;fill-opacity:1;stroke:none;stroke-width:0.529167;stroke-linecap:round;stroke-linejoin:round;stroke-miterlimit:7.64;stop-color:#000000"
       d="m 255.1506,118.59856 0.0886,-16.53177 -42.32072,-10.143724 2.49973,15.653774 z"
       id="path2218" />
    <path
       style="color:#000000;overflow:visible;fill:#246227;fill-opacity:1;stroke:none;stroke-width:0.529167;stroke-linecap:round;stroke-linejoin:round;stroke-miterlimit:7.64;stop-color:#000000"
       d="m 216.25648,108.15671 -4.61789,-40.29812 -98.1513,9.01754 5.12565,31.27173 27.82632,9.7523 z"
       id="path2153" />
    <path
       style="color:#000000;overflow:visible;fill:#1d5020;fill-opacity:1;stroke:none;stroke-width:0.529167;stroke-linecap:round;stroke-linejoin:round;stroke-miterlimit:7.64;stop-color:#000000"
       d="m 255.3043,118.61248 -39.06512,-10.81234 -69.91915,9.80145 0.0231,18.91748 z"
       id="path2088" />
    <path
       style="color:#000000;overflow:visible;fill:#904727;fill-opacity:1;stroke:none;stroke-width:3.21699;stroke-linecap:round;stroke-linejoin:round;stroke-miterlimit:7.64;stroke-dasharray:none;stop-color:#000000"
       d="m 100.27952,157.43511 5.78807,-1.54348 4.60705,-6.39609 -5.64774,0.0351 z"
       id="path6744" />
    <path
       style="color:#000000;overflow:visible;fill:#338c38;fill-opacity:1;stroke:none;stroke-width:0.529167;stroke-linecap:round;stroke-linejoin:round;stroke-miterlimit:7.64;stop-color:#000000"
       d="m 134.29753,159.95639 0.42711,-39.64578 -25.6746,-9.49312 -4.09196,-33.26046 -12.120317,-2.126949 2.55839,71.412539 z"
       id="path2023" />
    <path
       style="color:#000000;overflow:visible;fill:#83254f;fill-opacity:1;stroke:none;stroke-width:0.529167;stroke-linecap:round;stroke-linejoin:round;stroke-miterlimit:7.64;stop-color:#000000"
       d="M 296.32876,147.12261 73.924228,193.26728 245.54513,252.51757 429.73255,169.05245 Z"
       id="path2766" />
    <path
       style="color:#000000;overflow:visible;fill:#904727;fill-opacity:1;stroke:none;stroke-width:0.529167;stroke-linecap:round;stroke-linejoin:round;stroke-miterlimit:7.64;stop-color:#000000"
       d="m 356.87049,98.033013 9.12393,-0.07865 0.0786,31.933797 -4.01138,2.83156 -5.26986,-1.96636 z"
       id="path4610" />
    <path
       style="color:#000000;overflow:visible;fill:#904727;fill-opacity:1;stroke:none;stroke-width:0.529167;stroke-linecap:round;stroke-linejoin:round;stroke-miterlimit:7.64;stop-color:#000000"
       d="m 361.94372,132.8377 4.28667,-2.8709 10e-6,-30.046082 -4.24735,2.123682 z"
       id="path4752" />
    <path
       style="color:#000000;overflow:visible;fill:#a9532e;fill-opacity:1;stroke:none;stroke-width:0.529167;stroke-linecap:round;stroke-linejoin:round;stroke-miterlimit:7.64;stop-color:#000000"
       d="m 326.4732,142.71385 10e-6,-44.605033 31.81307,-10.233574 50.72292,3.225801 v 44.938736 l -2.89208,3.22581 -6.67408,-1.66853 -0.44493,-35.70627 -13.12567,6.56284 0.11122,41.71293 -5.45049,3.33703 -7.23023,-2.22469 -0.11124,-40.60058 -36.15121,-5.22802 -0.11123,37.26355 -4.47406,2.34941 z"
       id="path4417" />
    <path
       style="color:#000000;overflow:visible;fill:#904727;fill-opacity:1;stroke:none;stroke-width:0.529167;stroke-linecap:round;stroke-linejoin:round;stroke-miterlimit:7.64;stop-color:#000000"
       d="m 380.53317,153.39236 5.50613,-3.11456 -0.0556,-41.82417 19.36435,-9.483562 0.54664,40.629212 3.2814,-3.39265 V 90.934194 l -29.6996,14.571716 z"
       id="path4482" />
    <path
       style="color:#000000;overflow:visible;fill:#904727;fill-opacity:1;stroke:none;stroke-width:0.529167;stroke-linecap:round;stroke-linejoin:round;stroke-miterlimit:7.64;stop-color:#000000"
       d="m 332.40888,145.14238 4.68193,-2.40966 0.0186,-37.27618 -4.87056,-0.7188 z"
       id="path4750" />
    <path
       style="color:#000000;overflow:visible;fill:#743920;fill-opacity:1;stroke:none;stroke-width:0.529167;stroke-linecap:round;stroke-linejoin:round;stroke-miterlimit:7.64;stop-color:#000000"
       d="m 326.19513,98.108817 31.92429,-10.344807 51.16787,3.114566 -29.92206,14.961044 z"
       id="path4754" />
    <path
       style="color:#000000;overflow:visible;fill:#845fd0;fill-opacity:1;stroke:none;stroke-width:0.529167;stroke-linecap:round;stroke-linejoin:round;stroke-miterlimit:7.64;stop-color:#000000"
       d="m 361.14173,96.124744 14.55222,-0.05168 c 0,0 8.96834,-12.378206 7.95378,-19.098795 -0.80148,-5.309135 -9.14054,-7.114523 -10.34478,-12.347027 -0.68575,-2.979649 2.22467,-8.89876 2.22467,-8.89876 -0.0149,-0.02237 -19.00718,-0.01391 -19.00718,-0.01391 0,0 4.80527,5.780593 4.76918,9.24637 -0.0589,5.657606 -8.02861,9.248248 -8.12011,14.905421 -0.0947,5.85265 7.97325,16.261483 7.97222,16.258383 z"
       id="path4882" />
    <ellipse
       style="color:#000000;overflow:visible;fill:#5f4596;fill-opacity:1;stroke:none;stroke-width:0.529167;stroke-linecap:round;stroke-linejoin:round;stroke-miterlimit:7.64;stop-color:#000000"
       id="path6385"
       ry="1.251388"
       rx="9.496645"
       cy="55.714573"
       cx="366.01709" />
    <ellipse
       style="color:#000000;overflow:visible;fill:#845fd0;fill-opacity:1;stroke:none;stroke-width:0.529167;stroke-linecap:round;stroke-linejoin:round;stroke-miterlimit:7.64;stop-color:#000000"
       id="path6441"
       cx="368.39874"
       cy="95.726219"
       rx="7.4132018"
       ry="1.9517138" />
    <path
       style="color:#000000;overflow:visible;fill:#8f6fd0;fill-opacity:1;stroke:none;stroke-width:0.529167;stroke-linecap:round;stroke-linejoin:round;stroke-miterlimit:7.64;stop-color:#000000"
       d="m 360.23021,71.437499 c 0,0 -5.12993,3.347919 -5.68855,7.209896 -0.52234,3.611114 3.83646,9.855729 3.83646,9.855729 -4.18066,-7.477847 -3.83836,-12.055555 1.85209,-17.065625 z"
       id="path6514" />
    <ellipse
       cx="201.76207"
       cy="200.87019"
       style="clip-rule:evenodd;fill:#191919;fill-rule:evenodd;stroke:#191919;stroke-width:3.22468px;stroke-linecap:square;stroke-linejoin:round;stroke-miterlimit:2"
       id="circle14"
       rx="8.8162403"
       ry="2.7891932" />
    <ellipse
       cx="252.64432"
       cy="203.65941"
       style="clip-rule:evenodd;fill:#191919;fill-rule:evenodd;stroke:#191919;stroke-width:3.22468px;stroke-linecap:square;stroke-linejoin:round;stroke-miterlimit:2"
       id="circle18"
       rx="8.8162403"
       ry="2.7891932" />
    <path
       d="m 211.35119,208.01123 c -3.5e-4,0.11608 4.25294,1.60918 10.17526,0.23417 0.17707,-0.0114 4.42107,1.53807 10.10882,0.32242"
       style="clip-rule:evenodd;fill:none;fill-rule:evenodd;stroke:#191919;stroke-width:3.217;stroke-linecap:round;stroke-linejoin:round;stroke-miterlimit:2;stroke-dasharray:none"
       id="path38" />
    <path
       d="m 284.75098,168.1782 c 0,0 20.66164,-46.89872 -13.43155,-50.66393 -34.09317,-3.76522 7.36306,52.89638 8.21317,53.11977"
       style="clip-rule:evenodd;fill:none;fill-rule:evenodd;stroke:#191919;stroke-width:3.217;stroke-linecap:round;stroke-miterlimit:2;stroke-dasharray:none"
       id="path6" />
    <path
       d="m 300.55322,166.36411 c 0,0 10.25711,-50.50428 39.74646,-32.23566 29.48937,18.26862 -36.15761,37.81476 -36.96699,37.46307"
       style="clip-rule:evenodd;fill:none;fill-rule:evenodd;stroke:#191919;stroke-width:3.217;stroke-linecap:round;stroke-miterlimit:2;stroke-dasharray:none"
       id="path22" />
    <path
       style="color:#000000;overflow:visible;fill:#845fd0;fill-opacity:1;stroke:none;stroke-width:3.21699;stroke-linecap:round;stroke-linejoin:round;stroke-miterlimit:7.64;stroke-dasharray:none;stop-color:#000000"
       d="m 196.03245,113.34364 c 9.94624,1.84728 18.45651,3.30643 31.17135,-0.72955 1.56428,-9.74829 1.63599,-14.506356 -1.56124,-23.020177 -9.38963,-3.146576 -17.16558,-2.07123 -26.03078,-0.148342 -4.75779,9.371664 -5.69505,14.350159 -3.57933,23.898069 z"
       id="path7026" />
    <ellipse
       style="color:#000000;overflow:visible;fill:#5f4596;fill-opacity:1;stroke:none;stroke-width:3.21699;stroke-linecap:round;stroke-linejoin:round;stroke-miterlimit:7.64;stroke-dasharray:none;stop-color:#000000"
       id="path7028"
       cx="206.47871"
       cy="95.094467"
       rx="1.4967093"
       ry="1.0757599" />
    <ellipse
       style="color:#000000;overflow:visible;fill:#5f4596;fill-opacity:1;stroke:none;stroke-width:3.21699;stroke-linecap:round;stroke-linejoin:round;stroke-miterlimit:7.64;stroke-dasharray:none;stop-color:#000000"
       id="path7028-4"
       cx="216.76857"
       cy="95.328323"
       rx="1.4967093"
       ry="1.0757599" />
    <ellipse
       style="color:#000000;overflow:visible;fill:#5f4596;fill-opacity:1;stroke:none;stroke-width:3.21699;stroke-linecap:round;stroke-linejoin:round;stroke-miterlimit:7.64;stroke-dasharray:none;stop-color:#000000"
       id="path7028-7"
       cx="205.68358"
       cy="104.63599"
       rx="1.4967093"
       ry="1.0757599" />
    <ellipse
       style="color:#000000;overflow:visible;fill:#5f4596;fill-opacity:1;stroke:none;stroke-width:3.21699;stroke-linecap:round;stroke-linejoin:round;stroke-miterlimit:7.64;stroke-dasharray:none;stop-color:#000000"
       id="path7028-44"
       cx="216.39441"
       cy="105.15047"
       rx="1.4967093"
       ry="1.0757599" />
  </g>
</svg>
