<?xml version="1.0" encoding="utf-8"?>
<svg version="1.1" id="Layer_1" xmlns="http://www.w3.org/2000/svg" xmlns:xlink="http://www.w3.org/1999/xlink" x="0px" y="0px"
	 viewBox="0 0 256 256" style="enable-background:new 0 0 256 256;" xml:space="preserve">
<style type="text/css">
	.outline		{fill:#435;}
	.blue-light		{fill:#8BF;}
	.blue-middle	{fill:#69D;}
	.blue-dark		{fill:#47A;}
	.pink-light		{fill:#C7F;}
	.purple-light	{fill:#A8F;}
	.purple-middle	{fill:#75B;}
	.purple-dark	{fill:#548;}
	.skin-light		{fill:#ECB;}
	.skin-shadow	{fill:#B99;}
	.pink-dark		{fill:#94C;}
	
	.eye {
		animation: shake 5s ease-in-out infinite;
	}
@keyframes shake {
  0% { transform: translate(0, 0); }
  25% { transform: translate(1px, -1px); }
  75% { transform: translate(-2px, 2px); }
  100% { transform: translate(0, 0); }
}
</style>
<!--
	#################	##################
	#################	##################
	### You found ###	## write me     ##
	### an easter ###	## 'antiquitea' ##
	### egg!      ###	## for a secret ##
	#################	## level pack!  ##
	#################	##################
-->
<g id="Layer_2_00000003820424801040554330000015115415732017681329_">
	<rect x="1.5" y="1.5" class="outline" width="253" height="253"/>
</g>
<g>
	<g>
		<path class="pink-light" d="M-0.1,119c0-38.5,0-77,0.1-115.6C0,2.2,2.2,0,3.4,0c83-0.2,166.1-0.2,249.1,0c1.2,0,3.4,2.2,3.4,3.4
			c0.2,43.2,0.1,86.4,0.1,129.6c-1.8,1.6-3.7,1.1-5.5,0.2c-11.8-6-24-11-36.6-15.3c-1.4-0.5-2.6-1.5-3.7-2.4
			c-2.2-4.1-1.6-8.7-2.2-13.1c-3.6-25.8-10.4-50.5-25.4-72.3c-6.5-9.3-15.2-15.8-26.8-17.4c-4.3-0.6-8.2,0.9-12.2,1.7
			c-14.7,3.2-28.7,8.5-42.3,14.8c-8.1,3.7-14.6,9.9-19,17.8c-8.6,15.4-16,31.3-18.4,49.1c-0.2,1.8-0.9,3.6-2.4,4.8
			c-5.4,3.5-11.8,4.1-17.8,6C31.1,111,18.4,114.5,6,119.2C4,119.9,1.9,120.8-0.1,119z"/>
		<path class="outline" d="M60.8,100c4.8-14.6,9.4-29.4,14.6-43.9c9.2-25.8,32.5-32.7,55.2-40.1c2.5-0.8,5.1-1.2,7.5-2.1
			c32.6-6.7,43.1,6.7,53,25.4c12.5,23.7,19,49,20.2,75.7c3.4,3.4,3.4,7.8,3,12.1c-1.1,12.9-0.8,25.8-3.1,38.6
			c-0.5,2.9-0.7,5.9-1.7,8.7c-1.5,12.6-4.9,24.7-8.5,36.8c-1.1,3.8-1.6,7,1.7,10.5c3.7,4,4.5,9.5,5.5,14.7c0.8,4.2,1.2,8.5,2.7,12.6
			c0.8,2.3,1.5,4.9-0.8,7c-1.7,0-3.3,0-5,0c-3.7-2.3-3.5-6.2-4-9.7c-0.7-5.1-1.5-10.1-3-15.1c-1.9-6-3.5-7.2-9.7-6.9
			c-3.9,0.2-4.5-3-5.1-5.6c-1-4.9-1.5-9.8-2.3-14.7c-0.7-4.3-1.7-8.4-3-12.5c-0.5-1.7-1.1-3.5-3.4-4.5c-3.4,2.7-7.2,5-10.3,8.2
			c-0.7,0.7-1.4,1.3-2.3,1.9c-0.4,0.2-0.9,0.4-1.3,0.6c-9.2,7.8-14.1,18.3-18.6,29.1c-2.4,5.8-3.7,12-5.1,18.2
			c-0.7,3.2-2.2,5.5-5.9,2.7c-0.9-4.7-3.5-8-7.5-11c-7.7-5.8-12-14.1-13.5-23.7c-0.9-6,1.1-9,6.1-9.7c-1-4,1.5-7.7,0.8-11.9
			c-3.1-0.4-4.9,1-6.2,3.3c-1.4,2.3-2.3,4.8-3,7.4c-0.6,2.3-0.7,5.3-3.6,6.1c-3,0.8-3.5-2.6-5.3-3.6c-5.3,2.2-6.8,6-4.4,11.1
			c2.9,6.3,8.1,10.5,13.6,14.3c3.4,2.4,6.8,4.8,10.1,7.3c2,1.5,4.1,3.1,3.1,6.1c-2.5,2.2-5,1.2-7.4,0c-9.4-4.7-17.7-11-24.6-18.8
			c-0.1,0.7,0.2,1.6-0.1,2.5c-0.4,1.1-1.1,2.1-2.1,2.7c-7.1,4.8-9.9,11.7-9.9,20c0,2.3,0,4.7-2.1,6.3c-1,0-2,0-3,0
			c-5-4.2-3.3-9.7-2.5-14.8c0.6-4.3,3-8.1,5.5-11.6c1.7-2.3,1.9-4.5,0.9-7c-5.6-13.2-7.6-27.1-8.9-41.2c-0.2-2.3-0.2-4.7,0.3-6.9
			c0-1,0-2-0.6-2.9c-2.9,0.1-3.7,3.5-6.3,4.2c-1.6,0.3-2.8-0.1-3.7-1.5c-1.9-6-1.4-12.3-0.8-18.3c1.1-11.5,0.5-23,0.7-34.4
			c0.1-4.8,0.2-9.6,0.9-14.4C58,104.3,58.8,101.9,60.8,100z"/>
		<path class="blue-light" d="M68.8,173c3.5,17.3,7.1,34.6,10.6,51.9c0.2,1.1,0.2,2.8-0.4,3.5c-7.3,8-9.6,17.2-7,27.6
			c-22.8,0-45.7,0.1-68.5-0.1c-1.2,0-3.3-2.2-3.4-3.4c-0.2-18.5-0.2-37-0.2-55.5c1.2-2.2,2.8-3.9,5.1-5.2
			c14.6-7.7,29.8-13.6,45.9-17.4c2.4-0.6,4.9-1.4,7.1,0.5c0.9-0.3,1.9-0.6,2.8-0.9C63.4,173.1,65.8,170.5,68.8,173z"/>
		<path class="purple-light" d="M58.1,174.9C38.7,182.3,19.4,189.6,0,197c0-26,0-52,0-78c20.3-6.3,40.6-12.7,60.9-19
			C59.9,125,59,149.9,58.1,174.9z"/>
		<path class="blue-light" d="M210,256.1c-1.7-7.9-1.1-17.5-5.5-23.5c-12.6-17.1-1.2-32.4,0.9-48.4c0.4-3.1,1.1-6.1,1.7-9.1
			c1.9-1.4,4.1-1.2,6.2-0.8c12.7,2.5,25,6.4,36.6,12.2c2.6,1.3,4.8,2.9,6,5.6c0,20.3,0,40.7-0.1,61c0,1-1.9,2.9-2.9,2.9
			C238.7,256.1,224.4,256.1,210,256.1z"/>
		<path class="purple-light" d="M256.1,192c-16.3-5.7-32.6-11.3-48.9-17c1.3-20,2.7-40.1,4-60.1c15,6,29.9,12,44.9,18
			C256.1,152.7,256.1,172.3,256.1,192z"/>
		<path class="purple-middle" d="M131.9,247.2c1-0.9,2.8-1.6,3-2.7c3.7-18.1,9.6-34.9,23.9-47.7c0.6-0.5,1.5-0.6,2.2-0.9
			c2.5,2.6,0.8,5.4,0,7.9c-3.8,11-6.7,22.2-7.2,33.8c1.1,2.8,3,1.8,4.9,1c3.9-1.7,7.5-4.1,11.1-6.4c2-1.3,3.9-2,5.4,0.7
			c0.3,7.1-2.4,13.9-1.8,21c0.1,0.8-0.8,1.4-1.3,2c-32.3,0-64.7,0-97,0c-0.6-11.6,0.4-22.6,12.3-28.9c0-3.1,0-6.4,0-9.6
			c8.2,12.4,18.6,22,33.6,25.4C125.8,241,128.9,244,131.9,247.2z"/>
		<path class="purple-dark" d="M152.1,239.1c1.7-10.4,3.2-20.9,5.2-31.3c0.8-4,2.4-7.9,3.7-11.8l0,0c0.6-0.5,0.4-1.4,0.9-1.9
			c3.5-3,6.8-6.3,10.7-8.8c1.2-0.7,5.4,0.6,5.7,1.6c2.6,9.6,4.6,19.3,6.8,29c0.6,2.5,1.2,4.9,2,8.7c1.4-2.6,2.1-3.8,3-5.4
			c15.3,8.2,10.9,24.2,15,36.8c-11,0-22,0-33,0c0.7-8.1,1.4-16.2,2.1-24.3c-0.7-1.1-0.1-2.1,0.4-3.4c-5,4.2-10.1,7.9-16,10.3
			C156.5,239.6,154.4,241.4,152.1,239.1z"/>
		<path class="blue-dark" d="M177.1,28.9c7.3,14.7,16.9,28.7,21.6,44.2c13.4,44.5,8.9,89.3-3,133.5c-0.9,3.4-2.4,6.6-4.8,12.8
			c-2.9-12.9-4.6-21.8-7.1-30.6c-2.6-9.2-7.9-12.3-16.1-4.1c-4.3-6-8-11.2-11.7-16.4c5.6-4.2,9.7-7.3,14.5-10.8
			c-1.1,7.6-2,13.9-2.7,19.1c8-15.2,16.1-30.8,24.3-46.3c-0.5-0.3-1.1-0.5-1.6-0.8c-6,8.5-12.1,17.1-18.1,25.6
			c-0.7-0.5-1.4-1-2.1-1.4c2.9-9.6,6.3-19.1,8.7-28.9c3.8-15.2-2.9-27.3-10.7-39.9c-6.6-10.7-9.7-23.4-14.4-35.3
			c-1.9-1.5-1.8-3.4-1.2-5.4c2.6-8.2,7.6-14.3,15.9-17.1C171.7,26.3,174.6,26.6,177.1,28.9z"/>
		<path class="blue-middle" d="M177.1,28.7c-13.3,0.1-21.6,7.6-23.1,20.9c-0.7,1-1.4,2-2.1,3.1c-0.6,0.6-1,1.5-1.8,1.7
			c-5.6,4-9.2,7.6-10.9,13.9c-2.7,9.5-0.6,18.7,0.5,28c0.2,1.9,1.4,3.8,0.3,5.7c-3-7.7-7.2-15.1-8.5-23.1c-1.3-7.8,0.5-16,0.9-24.1
			c0-0.4-0.8-0.8-1.2-1.1c-6.9-1.5-12.4,0.5-16,6.7c-4,6.9-7.7,13.8-9.2,21.8c-0.4,2.3-0.5,5.1-3,6.5C89.5,88.2,99,75.4,92.8,71
			c-0.1,0.2-0.5,1-0.9,1.8c-13.6,15-17.4,33.5-18.8,52.9c-0.9,12.9,1.8,25,7.6,36.5c4.9,9.8,13.1,16.1,22.2,21.5
			c2,1.2,4.3,1.8,5.1,4.3c-1.9,3.2-3.9,6.4-5.9,9.7c-8.5-1.8-18,9.4-22.6,23.6c-2.6-22.1-5.1-44.2-7.8-66.5
			c-3.5,4.9-6.6,9.3-11.4,16c1.3-23.3,1.6-44.1,3.7-64.6c2.5-23.7,9.6-46.5,25.2-64.8c6.5-7.6,17.2-12.8,27.1-16
			c14.1-4.6,29.1-7.7,43.9-8.6C165.7,16.1,171.5,24.4,177.1,28.7z"/>
		<path class="skin-shadow" d="M118.9,111.1c2.5,1.6,6.4,2.6,7.2,4.8c3.3,9,12.2,12.2,27.5,8.7c18.5-4.2,20.3-7.4,15.7-28.3
			c7,4.9,8.8,20.9,4.1,36.7c-6.6,22.2-20.9,33.9-42.6,34.7c-0.5-0.4-1.2-1-1.1-1.6c1-5.4-1.7-9.3-5.3-12.8c2-4.8,5.1-6.9,9.5-6.5
			c4,0.4,5.1,0,9.6-3.4c-5.4,5.2-11.1,3.8-16.9,0.8c-1.4-2.2-3.4-2.6-6-2.3c-6.3,0.6-8.7-2.6-5.6-8c3.2-5.5,1.5-11.4,2.3-17
			C117.7,114.8,117.6,112.8,118.9,111.1z"/>
		<path class="skin-light" d="M124.9,152.9c8.3,2.4,7.8,8.3,6,14.8c-18.1,7.5-42.1-10.6-44.9-34.4c6.6-1.6,14-2,19.8-5.2
			c4.4-2.4,6.9-8.4,10.2-12.8c1-1.4,2-2.8,2.9-4.2c0,9.2,0,18.3,0,27.9c1.2,0.7,5.2,2.9,9.2,5.1c2.2,2.6,0,4-1.4,5.8
			C126,150.8,123.2,150.6,124.9,152.9z"/>
		<path class="blue-dark" d="M108,188c-20.6-7.3-31.8-22.5-35.9-43.4c-4.2-21.4,0-41.6,9.2-60.9c2-4.3,6.9-7.3,10.5-10.9
			c-3.1,7.6-6.9,15-9,22.8c-2.7,10-6.2,20.6-5.2,30.4c1.1,10.6,4.9,22.4,11.6,30.4s18.6,11.6,27.7,17.8c2.4,1.6,2.8,6,4.1,9
			C115.6,185.3,111.8,186.6,108,188z"/>
		<path class="purple-dark" d="M131.9,247.2c-3.7-1.4-7.3-2.8-11-4.2c-7.9-6.5-16.4-12.4-23.7-19.5c-6-5.8-10.2-13-1.5-20.5
			c1.3-1.1,3.3-1.6,5.3-2.5c0.8,2.9,1.3,4.8,2.3,8.2c2-5.7,2.7-10.4,5.2-14c2.3-3.4,6.3-5.5,12.5-10.6c-1.6,9.9-2.7,16.1-3.8,23
			c-1.1-1.2-1.6-1.9-2.2-2.6c-1.1,0.3-2.2,0.5-3.3,0.8c1.5,6.2,2.1,12.9,4.7,18.6c2.2,4.7,7.1,8.2,10.2,12.6
			C128.7,239.7,130.1,243.6,131.9,247.2z"/>
		<path class="skin-shadow" d="M124.2,189.1c0.4-4.9,0.8-9.8,1.3-15.7c9.5,2.1,18.6,4,25.5,5.6c7.1,19.5-8.1,28.9-14,42
			c-2.7-0.4-2.1-2.5-2.1-4.2c-0.1-4.4,0-8.9-0.6-13.3c-0.8-5.1-2.4-9.2-7.2-11.6C125.7,191.3,125.1,190,124.2,189.1z"/>
		<path class="skin-light" d="M124.2,189.1c12.3,1.9,12.2,11.6,12.8,20.7c0.2,3.7,0,7.5-0.1,11.2c-1.2,4.5-2.3,9.1-3.5,13.7
			c-13.9-7.2-16-14.3-11-34.5C123.2,196.6,123.6,192.8,124.2,189.1z"/>
		<path class="blue-dark" d="M102.9,88.8c4.1-10.8,7.3-22.1,12.6-32.3c2.7-5.3,9.2-8.4,15.5-2.7c-10.8,15.5-21.6,30.9-24.1,50.4
			c-0.3,2.1-0.8,4.2-1.4,7.3c-0.7-2-1.2-3.2-1.6-4.5c-1.5-3.4-2.1-6.9-2.7-10.5c-0.4-2.1-0.1-3.9,1.7-5.4
			C102.9,90.3,102.9,89.6,102.9,88.8z"/>
		<path class="skin-light" d="M129,97.9c6.9,7.4,11.5,12.3,18,19.3c-1.6-8.2-2.5-12.9-3.4-17.5c21.9-5,26.1-1.3,21.9,19.9
			c-8.2,0.5-16.7,1.2-25.2,1.3c-2.4,0.1-6.6-0.8-7-2.2C131.4,112.8,130.7,106.5,129,97.9z"/>
		<path class="skin-light" d="M106.3,119.9c-0.5,1.4-0.7,3.7-1.6,4c-6.3,1.9-12.7,3.4-19.1,4.8c-1,0.2-3.3-0.6-3.4-1.1
			c-0.4-5.9-2.9-14.6,0-17.1c3.7-3.2,11.7-1.5,17.9-1.9C101.5,112.2,104.3,117.5,106.3,119.9z"/>
		<path class="skin-shadow" d="M168.4,94.8c-7.9,0-15.8,0-24.1,0c0.3-2.6,0.6-6,1.1-10.3c4,0.6,7.8,1.2,11.6,1.8c0.3-0.6,0.7-1.1,1-1.7
			c-3.6-1.3-7.2-2.6-11.7-4.3c1.6-4.9,3.6-10.6,5.6-16.4C157.6,74.5,162.9,84.5,168.4,94.8z"/>
		<path class="blue-dark" d="M139.9,102.1c-4.3-12.6-7.3-25.6-1.5-38.1c2.2-4.8,8.8-7.5,13.5-11.1c-1.9,5.3-4.5,10.5-5.6,16
			c-2.2,10.9-3.5,22-5.2,33C140.8,102.3,140.4,102.4,139.9,102.1L139.9,102.1z"/>
		<path class="skin-shadow" d="M122,73.9c1.3-2.5,2.7-5,3.5-6.6c1.4,9.7,2.9,19.8,4.5,30.4c-3.1,2.7-7,6-10.9,9.3c-2.6-1.4-2.2-3.9-2.3-6.1
			C116.7,91.6,119.1,82.7,122,73.9z"/>
		<path class="skin-light" d="M122,73.9c-1,11.1-1.9,22.1-2.9,33.2c-2.7-1.6-5.5-3.1-9.1-5.2C114.1,92.4,118,83.2,122,73.9z"/>
		<path class="skin-light" d="M84.8,103.4c2.2-7.2,4.3-13.9,7.1-23.1c1,4.9,1.5,7,1.8,8.6c-1.8,2.2-3.4,4.2-5,6.1c0.3,0.3,0.7,0.5,1,0.8
			c1.6-1.2,3.1-2.5,4.8-3.8c0.9,3.4,1.8,6.4,2.6,9.4C93,102.1,89.3,102.7,84.8,103.4z"/>
		<path class="blue-dark eye" d="M106.3,119.9c-2.6,0.6-5.3,1.3-7.9,1.9c0.5-4.4,1.1-8.8,1.6-13.2C102.2,112.4,104.3,116.1,106.3,119.9z"/>
		<path class="purple-dark" d="M160.3,179.9c0.3,4,0.7,8.1,1,12.1c-1.3,0.1-2.6,0.2-3.9,0.3c0-4,0-8,0-12
			C158.4,180.2,159.4,180.1,160.3,179.9z"/>
		<path class="blue-middle" d="M102.9,91.1c0.4,5.3,0.7,10.6,1.1,15.9c-2.2-5-4.3-10-6.9-15.9C99.8,91.1,101.4,91.1,102.9,91.1z"/>
		<path class="purple-light" d="M68.8,173c-2.7,0.3-5.3,0.6-8,1c2.4-2.8,4.7-5.7,8-9.6C68.8,168.1,68.8,170.6,68.8,173z"/>
		<path class="skin-light" d="M109.1,120.5c0.4-4.7,0.5-9.3,0.9-14c0.6,0,1.3,0,1.9,0.1C111.7,111.2,110.6,120.5,109.1,120.5
			C108.4,120.5,109.9,120.5,109.1,120.5z"/>
		<path class="purple-middle" d="M161.9,194.1c-0.3,0.6-0.6,1.3-0.9,1.9C161.3,195.4,161.6,194.8,161.9,194.1z"/>
		<path class="outline" d="M152.1,239.1c9-5,18-10,28.7-15.9c-2.9,3.7-4.8,6.1-6.7,8.6c-6.4,3.3-12.8,6.6-19.4,9.8
			C154.3,241.7,153,240,152.1,239.1z"/>
		<path class="outline" d="M105.6,244.2c-4.9-3.7-9.8-7.3-14.7-11c0.5-0.6,0.9-1.3,1.4-1.9c4.9,3.6,9.7,7.2,14.6,10.8
			C106.5,242.8,106.1,243.5,105.6,244.2z"/>
		<path class="outline" d="M124.9,152.9c-2.7-0.6-5.4-1.2-6.2-1.4c3.2-2.5,6.3-5,9.4-7.4c7.3-1.5,14.6-2.9,23.5-4.7
			c-5.7,3.4-10.6,6.7-15.9,9.5C132.4,150.7,128.5,151.6,124.9,152.9z"/>
		<path class="blue-dark eye" d="M154,115c-4.9-4.2-3.5-11.1,2.7-13.8c1.5,2,3,4,5.8,7.8c-1,1.6-2.7,4.6-4.7,7.4
			C157.6,116.7,155.3,115.5,154,115c0.4-0.4,0.9-0.9,1.3-1.3C154.8,114.2,154.4,114.6,154,115z"/>
		<path class="blue-middle eye" d="M154,115c0.8-2.3,1.6-4.5,2.4-6.8c0.9,0.8,1.7,1.6,2.6,2.4C157.2,112.1,155.6,113.6,154,115L154,115z"/>
	</g>
	<a href="https://teamakes.games/">
		<rect x="230.5" y="228.3" class="blue-light" width="23.4" height="25.1"/>
		<path class="pink-dark" d="M232.3,240.1c-0.4,0-0.6-0.3-0.7-0.8c0-0.2-0.1-0.4-0.1-0.7c0-0.4,0-0.9,0.1-1.4c0.1-0.5,0.2-1.1,0.3-1.6
			c0.1-0.5,0.3-1,0.4-1.5c0.1-0.5,0.3-0.8,0.4-1.1c0,0,0,0,0-0.1c0,0,0-0.1,0-0.1H232v-1.1h1.3c0.2-0.4,0.3-0.8,0.5-1.1
			s0.3-0.9,0.6-1.4h1.1c0,0.2-0.1,0.5-0.3,1s-0.4,1-0.6,1.5c0.4,0,0.8,0,1.2,0c0.4,0,0.7,0,1.1,0h0v1.1h0c-0.4,0-0.8,0-1.3,0
			c-0.5,0-0.9,0-1.4,0c-0.1,0.2-0.2,0.3-0.2,0.5c-0.1,0.1-0.1,0.2-0.1,0.3c-0.1,0.3-0.3,0.7-0.4,1.2s-0.3,0.9-0.4,1.4
			c-0.1,0.5-0.2,0.9-0.3,1.3s-0.1,0.8-0.1,1.1c0.2-0.1,0.4-0.2,0.6-0.3c0.2-0.1,0.5-0.3,0.6-0.4s0.3-0.1,0.3,0h0.9
			c0,0.2-0.1,0.4-0.3,0.7c-0.2,0.3-0.4,0.5-0.7,0.8s-0.6,0.5-0.9,0.6C232.7,240,232.5,240.1,232.3,240.1z"/>
		<path class="pink-dark" d="M240.9,240.2c-0.3,0-0.6,0-0.8-0.1c-0.3-0.1-0.5-0.1-0.6-0.2c-0.2-0.2-0.5-0.4-0.7-0.7
			c-0.3-0.3-0.5-0.5-0.6-0.8l0,0c-0.1-0.2-0.2-0.4-0.2-0.6c-0.1-0.3-0.1-0.5-0.1-0.8c-0.1,0-0.3,0.1-0.4,0.1c-0.1,0-0.2,0-0.2,0h0
			v-1.4h0c0,0,0.1,0,0.2-0.1c0.1,0,0.3-0.1,0.4-0.1c0.1-0.6,0.2-1.3,0.4-1.9c0.2-0.6,0.4-1.2,0.6-1.7c0.2-0.5,0.5-0.9,0.7-1.1
			c0.1-0.1,0.2-0.2,0.3-0.2c0.1,0,0.3-0.1,0.5-0.1c0.2,0,0.4-0.1,0.6-0.1c0.3,0,0.5,0.1,0.8,0.3c0.3,0.2,0.5,0.4,0.8,0.6
			c0.2,0.2,0.4,0.5,0.6,0.7c0.3,0.4,0.4,0.7,0.3,0.9c-0.1,0.2-0.1,0.3-0.3,0.4s-0.2,0.2-0.3,0.3c-0.6,0.6-1.1,1.2-1.8,1.6
			s-1.3,0.9-2.1,1.3c0,0-0.2,0.1-0.4,0.2c0,0.2,0,0.4,0,0.5c0,0.1,0.1,0.3,0.1,0.4c0,0,0.1,0.2,0.3,0.4s0.4,0.4,0.7,0.6l0.1,0.1
			c0.1,0,0.2,0,0.4,0.1c0.2,0,0.4,0,0.6,0h0.3l1.2-1.3l0.8,0.9l-1.3,1.5h0C241.7,240.1,241.4,240.2,240.9,240.2z M238.8,235
			c0.4-0.2,0.8-0.4,1.1-0.5c0.4-0.2,0.7-0.4,1.1-0.7c0.4-0.3,0.7-0.7,1.1-1.2l0,0c-0.2-0.2-0.4-0.4-0.6-0.5
			c-0.2-0.2-0.5-0.3-0.7-0.3c-0.1,0-0.1,0-0.2,0c-0.1,0-0.2,0-0.2,0c-0.2,0-0.3,0-0.3-0.1c-0.1-0.1-0.1-0.2-0.1-0.2
			c-0.2,0.2-0.4,0.5-0.5,0.8s-0.3,0.8-0.4,1.3S238.9,234.5,238.8,235z"/>
		<path class="pink-dark" d="M249.8,240.3c-0.3,0.1-0.4,0.1-0.5-0.1c-0.1-0.2-0.1-0.4-0.1-0.6c0-0.2,0-0.4,0-0.6c0-0.6,0-1.1,0.1-1.8
			c0.1-0.6,0.2-1.2,0.3-1.8s0.2-1.1,0.3-1.5c0-0.2,0-0.3,0.1-0.5c0-0.1,0-0.3,0.1-0.5c0,0,0,0.1-0.1,0.1c0,0,0,0.1-0.1,0.1l-0.1,0.5
			h-0.1c0,0,0,0,0,0s0,0-0.1,0c-0.2,0.3-0.3,0.5-0.5,0.8c-0.1,0.2-0.3,0.4-0.4,0.6c-0.3,0.5-0.5,1-0.8,1.4c-0.2,0.5-0.5,1-0.8,1.4
			c-0.2,0.3-0.4,0.5-0.5,0.7c-0.2,0.2-0.3,0.4-0.5,0.7c-0.4,0.6-0.8,0.9-0.9,0.9c-0.1,0-0.2-0.2-0.3-0.4c-0.1-0.2-0.2-0.5-0.3-0.8
			c-0.1-0.3-0.2-0.6-0.2-0.9c0-0.3-0.1-0.5-0.1-0.5c0-0.4,0-0.8,0-1.1c0-0.4,0-0.8,0.1-1.1c0-0.3,0.1-0.7,0.3-1.2s0.3-0.9,0.5-1.4
			c0.2-0.5,0.4-0.9,0.7-1.3c0.3-0.4,0.5-0.6,0.9-0.8c0.1-0.1,0.3-0.1,0.4-0.1c0.2,0,0.5,0.1,0.7,0.2c0.3,0.1,0.5,0.3,0.8,0.5
			c0.3,0.2,0.5,0.3,0.7,0.5c0.2-0.4,0.3-0.7,0.3-0.9h0c0.6,0,1,0,1.2,0c0.2,0,0.3,0,0.3,0.1c0,0,0,0.1,0,0.2c0,0.1,0,0.2,0,0.4
			c0,0.1,0,0.3-0.1,0.4c0,0.1-0.1,0.3-0.1,0.4c-0.1,0.3-0.1,0.6-0.2,1c0,0.3-0.1,0.7-0.2,1c-0.1,0.4-0.2,0.9-0.3,1.4
			c-0.1,0.5-0.2,1-0.3,1.5s-0.1,1-0.2,1.5c0.1-0.1,0.2-0.3,0.4-0.4c0.1-0.2,0.3-0.4,0.6-0.8c0,0,0.1-0.1,0.1-0.2s0.2-0.3,0.2-0.4
			s0.1-0.2,0.1-0.2h0.1l0.4,0.6h0.4c0,0.2,0,0.3-0.1,0.4c-0.1,0.1-0.2,0.2-0.2,0.3c-0.1,0.1-0.1,0.2-0.2,0.3c-0.2,0.3-0.5,0.6-0.7,1
			s-0.5,0.6-0.8,0.9c-0.1,0.1-0.3,0.2-0.4,0.2C249.8,240.3,249.8,240.3,249.8,240.3z M245.5,238.3c0.2-0.3,0.4-0.5,0.5-0.7
			c0.1-0.2,0.3-0.3,0.3-0.5c0.3-0.5,0.6-1,0.8-1.4s0.4-0.9,0.7-1.3c0.1-0.2,0.2-0.4,0.4-0.6s0.3-0.5,0.4-0.7
			c-0.3-0.2-0.5-0.5-0.8-0.7c-0.3-0.2-0.5-0.3-0.8-0.3c0,0-0.1-0.1-0.1-0.2s0-0.2,0-0.3c-0.2,0.1-0.4,0.4-0.6,0.7
			c-0.2,0.3-0.4,0.7-0.5,1.1c-0.1,0.4-0.3,0.8-0.4,1.2c-0.1,0.4-0.2,0.7-0.2,1c0,0.3-0.1,0.7-0.1,1s0,0.7,0,1.1h0
			c0,0.1,0.1,0.2,0.1,0.3C245.5,238,245.5,238.2,245.5,238.3z"/>
		<path class="purple-middle" d="M232.2,242.6v0.4c0.1-0.1,0.3-0.2,0.5-0.3c0.2-0.1,0.4-0.1,0.6-0.1c0.2,0,0.4,0,0.6,0.1
			c0.2,0.1,0.3,0.2,0.5,0.4c0.3-0.3,0.7-0.5,1.2-0.5c0.4,0,0.8,0.1,1,0.4c0.2,0.2,0.4,0.6,0.4,1v2.3H236v-2.1c0-0.3-0.1-0.5-0.2-0.6
			c-0.1-0.1-0.3-0.2-0.5-0.2c-0.2,0-0.4,0.1-0.6,0.2c-0.1,0.1-0.2,0.4-0.2,0.6v2.1h-0.9v-2.1c0-0.3-0.1-0.5-0.2-0.6
			c-0.1-0.1-0.3-0.2-0.5-0.2c-0.2,0-0.4,0.1-0.6,0.2c-0.1,0.1-0.2,0.4-0.2,0.6v2.1h-0.9v-3.6H232.2z"/>
		<path class="purple-middle" d="M240.8,243.9v2.3h-0.8v-0.3c-0.1,0.1-0.3,0.2-0.5,0.3c-0.2,0.1-0.4,0.1-0.6,0.1c-0.4,0-0.8-0.1-1-0.3
			s-0.3-0.5-0.3-0.8c0-0.3,0.1-0.6,0.4-0.8c0.2-0.2,0.6-0.3,1-0.3h1v-0.2c0-0.4-0.3-0.7-0.8-0.7c-0.2,0-0.4,0-0.5,0.1
			c-0.1,0.1-0.2,0.2-0.2,0.3v0h-0.8v0c0-0.3,0.1-0.6,0.4-0.8c0.3-0.2,0.6-0.3,1.1-0.3c0.5,0,0.9,0.1,1.2,0.3
			C240.6,243.2,240.8,243.5,240.8,243.9z M239.9,244.7h-0.8c-0.2,0-0.4,0-0.5,0.1c-0.1,0.1-0.2,0.2-0.2,0.3c0,0.1,0.1,0.3,0.2,0.3
			s0.3,0.1,0.5,0.1c0.6,0,0.8-0.2,0.8-0.7V244.7z"/>
		<path class="purple-middle" d="M242.4,245.1v1.1h-0.9v-4.8h0.9v2.7l1.5-1.5h1.1l-1.5,1.4l1.6,2.2H244l-1.1-1.6L242.4,245.1z"/>
		<path class="purple-middle" d="M246.1,244.7c0,0.6,0.3,0.9,0.9,0.9c0.2,0,0.4,0,0.5-0.1c0.1-0.1,0.2-0.2,0.2-0.3l0,0h0.8v0
			c0,0.4-0.2,0.6-0.5,0.8c-0.3,0.2-0.7,0.3-1.1,0.3c-0.5,0-1-0.1-1.3-0.4c-0.3-0.3-0.5-0.7-0.5-1.3v-0.3c0-0.6,0.1-1,0.4-1.3
			c0.3-0.3,0.7-0.4,1.2-0.4c0.5,0,0.9,0.1,1.2,0.4s0.4,0.7,0.4,1.3v0.4L246.1,244.7L246.1,244.7z M247.7,244.1L247.7,244.1
			c0-0.3-0.1-0.5-0.2-0.6c-0.1-0.1-0.3-0.2-0.6-0.2c-0.5,0-0.8,0.3-0.8,0.8H247.7z"/>
		<path class="purple-middle" d="M249.2,245.1L249.2,245.1l0.8,0v0c0,0.1,0.1,0.3,0.2,0.3c0.1,0.1,0.3,0.1,0.6,0.1c0.2,0,0.4,0,0.6-0.1
			c0.1-0.1,0.2-0.2,0.2-0.3c0-0.1,0-0.2-0.1-0.3c-0.1-0.1-0.2-0.1-0.4-0.1l-0.5-0.1c-0.4-0.1-0.7-0.2-0.9-0.3
			c-0.2-0.2-0.3-0.4-0.3-0.7c0-0.4,0.1-0.6,0.4-0.8c0.3-0.2,0.6-0.3,1.1-0.3c0.5,0,0.9,0.1,1.1,0.3s0.4,0.5,0.4,0.8v0h-0.8v0
			c0-0.1-0.1-0.2-0.2-0.3c-0.1-0.1-0.3-0.1-0.6-0.1c-0.2,0-0.4,0-0.5,0.1c-0.1,0.1-0.2,0.2-0.2,0.3c0,0.1,0,0.2,0.1,0.2
			c0.1,0.1,0.2,0.1,0.4,0.1l0.6,0.1c0.4,0,0.7,0.2,0.9,0.3c0.2,0.2,0.3,0.4,0.3,0.7c0,0.4-0.1,0.7-0.4,0.9c-0.3,0.2-0.7,0.3-1.2,0.3
			c-0.5,0-0.9-0.1-1.2-0.3C249.3,245.8,249.2,245.5,249.2,245.1z"/>
		<path class="blue-dark" d="M231.4,251.7h0.8c0,0.1,0.1,0.2,0.2,0.3c0.1,0.1,0.3,0.1,0.5,0.1c0.5,0,0.8-0.2,0.8-0.7V251
			c-0.2,0.3-0.6,0.5-1,0.5c-0.4,0-0.8-0.1-1-0.4s-0.4-0.7-0.4-1.2v-0.3c0-0.5,0.1-0.9,0.4-1.2c0.3-0.3,0.6-0.4,1-0.4
			c0.4,0,0.8,0.2,1,0.5V248h0.9v3.3c0,0.5-0.2,0.8-0.5,1.1c-0.3,0.3-0.7,0.4-1.3,0.4c-0.5,0-0.8-0.1-1.1-0.3
			C231.6,252.4,231.4,252.1,231.4,251.7z M233.8,249.8v-0.3c0-0.3-0.1-0.5-0.2-0.6c-0.1-0.1-0.3-0.2-0.6-0.2c-0.2,0-0.4,0.1-0.6,0.2
			c-0.1,0.1-0.2,0.4-0.2,0.7v0.2c0,0.3,0.1,0.5,0.2,0.7c0.1,0.1,0.3,0.2,0.6,0.2c0.3,0,0.5-0.1,0.6-0.2
			C233.7,250.3,233.8,250.1,233.8,249.8z"/>
		<path class="blue-dark" d="M238.5,249.3v2.3h-0.8v-0.3c-0.1,0.1-0.3,0.2-0.5,0.3c-0.2,0.1-0.4,0.1-0.6,0.1c-0.4,0-0.8-0.1-1-0.3
			s-0.3-0.5-0.3-0.8c0-0.3,0.1-0.6,0.4-0.8c0.2-0.2,0.6-0.3,1-0.3h1v-0.2c0-0.4-0.3-0.7-0.8-0.7c-0.2,0-0.4,0-0.5,0.1
			c-0.1,0.1-0.2,0.2-0.2,0.3v0h-0.8v0c0-0.3,0.1-0.6,0.4-0.8c0.3-0.2,0.6-0.3,1.1-0.3c0.5,0,0.9,0.1,1.2,0.3
			C238.4,248.6,238.5,248.9,238.5,249.3z M237.6,250.1h-0.8c-0.2,0-0.4,0-0.5,0.1c-0.1,0.1-0.2,0.2-0.2,0.3c0,0.1,0.1,0.3,0.2,0.3
			s0.3,0.1,0.5,0.1c0.6,0,0.8-0.2,0.8-0.7V250.1z"/>
		<path class="blue-dark" d="M240.1,248v0.4c0.1-0.1,0.3-0.2,0.5-0.3c0.2-0.1,0.4-0.1,0.6-0.1c0.2,0,0.4,0,0.6,0.1
			c0.2,0.1,0.3,0.2,0.5,0.4c0.3-0.3,0.7-0.5,1.2-0.5c0.4,0,0.8,0.1,1,0.4c0.2,0.2,0.4,0.6,0.4,1v2.3h-0.9v-2.1
			c0-0.3-0.1-0.5-0.2-0.6c-0.1-0.1-0.3-0.2-0.5-0.2c-0.2,0-0.4,0.1-0.6,0.2c-0.1,0.1-0.2,0.4-0.2,0.6v2.1h-0.9v-2.1
			c0-0.3-0.1-0.5-0.2-0.6c-0.1-0.1-0.3-0.2-0.5-0.2c-0.2,0-0.4,0.1-0.6,0.2c-0.1,0.1-0.2,0.4-0.2,0.6v2.1h-0.9V248H240.1z"/>
		<path class="blue-dark" d="M246.3,250.1c0,0.6,0.3,0.9,0.9,0.9c0.2,0,0.4,0,0.5-0.1c0.1-0.1,0.2-0.2,0.2-0.3l0,0h0.8v0
			c0,0.4-0.2,0.6-0.5,0.8c-0.3,0.2-0.7,0.3-1.1,0.3c-0.5,0-1-0.1-1.3-0.4c-0.3-0.3-0.5-0.7-0.5-1.3v-0.3c0-0.6,0.1-1,0.4-1.3
			c0.3-0.3,0.7-0.4,1.2-0.4c0.5,0,0.9,0.1,1.2,0.4s0.4,0.7,0.4,1.3v0.4L246.3,250.1L246.3,250.1z M248,249.5L248,249.5
			c0-0.3-0.1-0.5-0.2-0.6c-0.1-0.1-0.3-0.2-0.6-0.2c-0.5,0-0.8,0.3-0.8,0.8H248z"/>
		<path class="blue-dark" d="M249.4,250.5L249.4,250.5l0.8,0v0c0,0.1,0.1,0.3,0.2,0.3c0.1,0.1,0.3,0.1,0.6,0.1c0.2,0,0.4,0,0.6-0.1
			c0.1-0.1,0.2-0.2,0.2-0.3c0-0.1,0-0.2-0.1-0.3s-0.2-0.1-0.4-0.1l-0.5-0.1c-0.4-0.1-0.7-0.2-0.9-0.3c-0.2-0.2-0.3-0.4-0.3-0.7
			c0-0.4,0.1-0.6,0.4-0.8c0.3-0.2,0.6-0.3,1.1-0.3c0.5,0,0.9,0.1,1.1,0.3s0.4,0.5,0.4,0.8v0h-0.8v0c0-0.1-0.1-0.2-0.2-0.3
			c-0.1-0.1-0.3-0.1-0.6-0.1c-0.2,0-0.4,0-0.5,0.1c-0.1,0.1-0.2,0.2-0.2,0.3c0,0.1,0,0.2,0.1,0.2c0.1,0.1,0.2,0.1,0.4,0.1l0.6,0.1
			c0.4,0,0.7,0.2,0.9,0.3c0.2,0.2,0.3,0.4,0.3,0.7c0,0.4-0.1,0.7-0.4,0.9c-0.3,0.2-0.7,0.3-1.2,0.3c-0.5,0-0.9-0.1-1.2-0.3
			C249.6,251.2,249.4,250.9,249.4,250.5z"/>
	</a>
</g>
</svg>
