<?xml version="1.0" encoding="UTF-8"?>
<svg version="1.1" viewBox="0 0 75 32" xmlns="http://www.w3.org/2000/svg"><title>Matrix (protocol) logo</title><g fill="#040404"><path d="m0.936 0.732v30.52h2.194v0.732h-3.035v-31.98h3.034v0.732zm73.16 30.52v-30.52h-2.194v-0.732h3.035v31.98h-3.035v-0.732z"/><g transform="scale(.9672 1.034)" fill="#000" stroke-linecap="round" stroke-linejoin="round" stroke-width="4.715" style="paint-order:stroke fill markers" aria-label="one world story"><path d="m7.588 15.48q0-0.4876-0.1057-0.6462-0.1057-0.1586-0.376-0.1586-0.2585 0-0.3584 0.1527-0.09987 0.1469-0.09987 0.6638v2.344q0 0.423 0.1057 0.5992 0.1057 0.1704 0.3525 0.1704 0.2761 0 0.376-0.1469 0.1057-0.1527 0.1057-0.6932zm1.651-0.1586v2.614q0 1.093-0.4758 1.539t-1.645 0.4465q-1.175 0-1.645-0.4406-0.47-0.4406-0.47-1.545v-2.614q0-1.063 0.4758-1.504 0.4817-0.4406 1.639-0.4406 1.163 0 1.639 0.4406 0.4817 0.4347 0.4817 1.504z"/><path d="m10.21 19.75v-6.209h1.539v0.7696q0.2526-0.4582 0.6168-0.6932 0.3642-0.2409 0.8048-0.2409 0.6403 0 0.9576 0.4112 0.3172 0.4053 0.3172 1.234v4.729h-1.61v-4.177q0-0.5581-0.1057-0.7402-0.09987-0.1821-0.3642-0.1821-0.2702 0-0.3995 0.2174-0.1292 0.2115-0.1292 0.6462v4.236z"/><path d="m19.56 17.57v0.423q0 0.9987-0.47 1.463-0.4641 0.4641-1.475 0.4641-1.175 0-1.704-0.3995-0.5228-0.4053-0.5228-1.298v-3.102q0-0.9047 0.517-1.328 0.5228-0.4288 1.621-0.4288 1.028 0 1.527 0.47 0.5052 0.4641 0.5052 1.416v1.757h-2.55v1.081q0 0.2996 0.1292 0.4288 0.1292 0.1292 0.423 0.1292 0.2585 0 0.376-0.1351 0.1175-0.1351 0.1175-0.423v-0.517zm-2.55-1.645h1.046v-0.7226q0-0.282-0.1351-0.423-0.1351-0.141-0.4053-0.141-0.2526 0-0.3819 0.141-0.1234 0.141-0.1234 0.423z"/><path d="m27.31 13.54 0.5052 4.623 0.564-4.623h1.633l-1.198 6.209h-1.962l-0.4817-4.57-0.47 4.57h-1.962l-1.204-6.209h1.639l0.564 4.623 0.5052-4.623z"/><path d="m33.11 15.48q0-0.4876-0.1057-0.6462-0.1057-0.1586-0.376-0.1586-0.2585 0-0.3584 0.1527-0.09987 0.1469-0.09987 0.6638v2.344q0 0.423 0.1057 0.5992 0.1057 0.1704 0.3525 0.1704 0.2761 0 0.376-0.1469 0.1057-0.1527 0.1057-0.6932zm1.651-0.1586v2.614q0 1.093-0.4758 1.539t-1.645 0.4465q-1.175 0-1.645-0.4406-0.47-0.4406-0.47-1.545v-2.614q0-1.063 0.4758-1.504 0.4817-0.4406 1.639-0.4406 1.163 0 1.639 0.4406 0.4817 0.4347 0.4817 1.504z"/><path d="m35.79 19.75v-6.209h1.674l-0.047 1.157q0.1527-0.4523 0.5111-0.7755 0.3584-0.329 0.9576-0.5463l-0.0059 2.185q-0.09987-0.01762-0.188-0.0235-0.08225-0.01175-0.1586-0.01175-0.5581 0-0.8166 0.2996-0.2526 0.2996-0.2526 0.9634v2.961z"/><path d="m39.76 19.75v-8.577h1.674v8.577z"/><path d="m45.2 19.75v-0.7696q-0.2526 0.4582-0.6168 0.6991-0.3642 0.2409-0.8048 0.2409-0.6345 0-0.9341-0.3995-0.2937-0.3995-0.2937-1.251v-3.249q0-0.8342 0.2996-1.24 0.2996-0.4054 0.9164-0.4054 0.4288 0 0.7872 0.2467 0.3584 0.2467 0.5698 0.6873v-3.137h1.616v8.577zm-0.07637-4.353q0-0.3936-0.1057-0.5346-0.1057-0.141-0.3642-0.141-0.2585 0-0.3584 0.1292-0.09399 0.1292-0.09399 0.5463v2.503q0 0.4112 0.09987 0.5405t0.3525 0.1292q0.2585 0 0.3584-0.1234 0.09987-0.1234 0.1116-0.5463z"/><path d="m50.39 17.63h1.563q-0.0059 0.05875-0.01175 0.1175 0 0.05875 0 0.1704 0 0.3642 0.1175 0.5463 0.1234 0.1762 0.3642 0.1762 0.2232 0 0.3466-0.141 0.1234-0.1469 0.1234-0.4053 0-0.2291-0.1351-0.4054-0.1351-0.1762-0.4582-0.3642-0.188-0.09987-0.5346-0.282-0.752-0.3819-0.9517-0.6051-0.2291-0.2409-0.3349-0.5522-0.09987-0.3114-0.09987-0.7343 0-0.8812 0.517-1.328 0.517-0.4523 1.527-0.4523 0.9341 0 1.433 0.4758 0.5052 0.4758 0.5052 1.363 0 0.1057-0.0059 0.1586 0 0.05287-0.01175 0.1057h-1.498q0.0059-0.04112 0.0059-0.08225 0.0059-0.047 0.0059-0.1351 0-0.2937-0.1116-0.4523t-0.3231-0.1586q-0.1997 0-0.3231 0.1234-0.1234 0.1175-0.1234 0.3055 0 0.4112 0.8401 0.8342 0.376 0.188 0.5816 0.3114 0.6286 0.376 0.8753 0.7696 0.2526 0.3877 0.2526 0.9869 0 0.9576-0.5287 1.457-0.5287 0.4935-1.551 0.4935-1.075 0-1.574-0.4641-0.4935-0.47-0.4935-1.475 0-0.09987 0-0.188 0.0059-0.08812 0.01175-0.1704z"/><path d="m55.82 14.94h-0.5405v-1.398h0.5405v-1.61h1.674v1.61h0.9399v1.398h-0.9399v2.708q0 0.2937 0.1704 0.4288 0.1762 0.1351 0.5522 0.1351 0.02937 0 0.09987-0.0059t0.1175-0.0059v1.551h-1.24q-0.8283 0-1.104-0.2644-0.2702-0.2644-0.2702-0.9869z"/><path d="m61.8 15.48q0-0.4876-0.1057-0.6462-0.1057-0.1586-0.376-0.1586-0.2585 0-0.3584 0.1527-0.09987 0.1469-0.09987 0.6638v2.344q0 0.423 0.1057 0.5992 0.1057 0.1704 0.3525 0.1704 0.2761 0 0.376-0.1469 0.1057-0.1527 0.1057-0.6932zm1.651-0.1586v2.614q0 1.093-0.4758 1.539t-1.645 0.4465q-1.175 0-1.645-0.4406-0.47-0.4406-0.47-1.545v-2.614q0-1.063 0.4758-1.504 0.4817-0.4406 1.639-0.4406 1.163 0 1.639 0.4406 0.4817 0.4347 0.4817 1.504z"/><path d="m64.48 19.75v-6.209h1.674l-0.047 1.157q0.1527-0.4523 0.5111-0.7755 0.3584-0.329 0.9576-0.5463l-0.0059 2.185q-0.09987-0.01762-0.188-0.0235-0.08225-0.01175-0.1586-0.01175-0.5581 0-0.8166 0.2996-0.2526 0.2996-0.2526 0.9634v2.961z"/><path d="m68.56 20.28h0.6873q0.1469 0 0.2174-0.0705 0.0705-0.06462 0.0705-0.2056 0-0.05875-0.0059-0.08812 0-0.02937-0.0059-0.05287l-1.663-6.321h1.674l0.8166 4.864 0.5992-4.864h1.604l-1.422 6.785q-0.1997 0.9693-0.517 1.251-0.3172 0.2879-0.9869 0.2879h-1.069z"/></g></g></svg>
