<?xml version="1.0" encoding="utf-8"?>
<!-- Generator: Adobe Illustrator 26.3.1, SVG Export Plug-In . SVG Version: 6.00 Build 0)  -->
<svg version="1.1" id="Layer_1" xmlns:serif="http://www.serif.com/"
	 xmlns="http://www.w3.org/2000/svg" xmlns:xlink="http://www.w3.org/1999/xlink" x="0px" y="0px" viewBox="0 0 256 256"
	 style="enable-background:new 0 0 256 256;" xml:space="preserve">
<style type="text/css">
	.st0{fill:none;stroke:#191919;stroke-width:11.38;stroke-linecap:round;stroke-miterlimit:2;}
	.st1{fill:none;stroke:#191919;stroke-width:9.3;stroke-linecap:round;stroke-miterlimit:2;}
	.st2{fill:#83254F;}
	
		.st3{fill-rule:evenodd;clip-rule:evenodd;fill:#191919;stroke:#191919;stroke-width:4;stroke-linecap:square;stroke-linejoin:round;stroke-miterlimit:2;}
	.st4{fill:none;stroke:#191919;stroke-width:9.15;stroke-linecap:round;stroke-miterlimit:2;}
	.st5{fill:none;stroke:#191919;stroke-width:11.48;stroke-linecap:round;stroke-miterlimit:2;}
	.st6{fill:none;stroke:#191919;stroke-width:4;stroke-linecap:round;stroke-linejoin:round;stroke-miterlimit:2;}
	.st7{fill:#FFFFFF;}
</style>
<g transform="matrix(1,0,0,1,-49,-32)">
	<g transform="matrix(0.256192,0,0,0.26903,865.831,258.036)">
		<g transform="matrix(-1.30031,0,0,1.2824,-5204.42,-15.1179)">
			<path class="st0" d="M-1653.9-26.2c34.3,0.4,48.3,21.2,52.1,52.1"/>
		</g>
		<g transform="matrix(-1.2973,-0.953582,-0.966902,1.27943,-4615.99,-815.89)">
			<path class="st1" d="M-1055.9-478.4c0,0,51.9-244.6,201.1-156.1s-183,183.2-187.1,181.5"/>
		</g>
		<g transform="matrix(816.653,-240.699,244.061,805.403,-3226.92,-110.694)">
			<path class="st2" d="M0.7,0.4c-0.1,0-0.2,0-0.3,0c-0.1,0-0.1-0.1-0.2-0.1c0-0.1-0.1-0.1-0.1-0.2c0-0.1,0-0.2,0.1-0.2
				c0-0.1,0.1-0.1,0.2-0.1c0.1,0,0.2,0,0.3,0s0.2,0,0.3,0c0.1,0,0.1,0.1,0.2,0.1c0,0.1,0.1,0.1,0.1,0.2s0,0.2-0.1,0.2
				c0,0.1-0.1,0.1-0.2,0.1C0.9,0.3,0.8,0.4,0.7,0.4z"/>
		</g>
		<g transform="matrix(1.30031,0,0,1.2824,-932.381,-308.02)">
			<ellipse class="st3" cx="-1613.3" cy="63.9" rx="8.2" ry="8.5"/>
		</g>
		<g transform="matrix(1.30031,0,0,1.2824,-801.05,-285.578)">
			<ellipse class="st3" cx="-1572.3" cy="71.1" rx="8.2" ry="8.5"/>
		</g>
		<g transform="matrix(1.61799,0,0,1.5957,-1316.63,223.263)">
			<path class="st4" d="M-826.7-412.6c0,0,51.9-244.6,201.1-156.1s-183,183.2-187.1,181.5"/>
		</g>
		<g transform="matrix(1.30031,0,0,1.2824,-775.629,34.1386)">
			<path class="st0" d="M-1470.8-10.5c34.3,0.4,48.3,21.2,52.1,52.1"/>
		</g>
		<g transform="matrix(1.30031,0,0,1.2824,-661.888,-13.3998)">
			<path class="st0" d="M-1435.2-25.6c34.3,0.4,48.3,21.2,52.1,52.1"/>
		</g>
		<g transform="matrix(1.2577,-0.325599,0.330147,1.24037,-577.602,-579.56)">
			<path class="st5" d="M-1457.6,7c34.3,0.4,48.3,21.2,52.1,52.1"/>
		</g>
		<g transform="matrix(0.847203,0.0607778,-0.0616267,0.835533,-2048.07,-171.385)">
			<path class="st6" d="M-1110,112.1c0.1,1.6,19.7,20.4,43.6,0c0.7-0.2,20.4,19.4,43.4,1.2"/>
		</g>
	</g>
	<ellipse transform="matrix(0.1905 -0.9817 0.9817 0.1905 57.1998 417.9363)" class="st7" cx="282" cy="174.3" rx="16" ry="5.4"/>
	<ellipse class="st7" cx="269.1" cy="199.5" rx="3" ry="3.4"/>
	<ellipse transform="matrix(0.5 -0.866 0.866 0.5 -90.3119 153.6411)" class="st7" cx="87.9" cy="155" rx="8.8" ry="4.6"/>
	<circle class="st7" cx="93.8" cy="170.7" r="3.1"/>
</g>
</svg>
