<svg xmlns="http://www.w3.org/2000/svg" viewBox="0 0 237 121.9"><g style="isolation:isolate"><path d="M66.9,2l.3-.7h9.4a11.8,11.8,0,0,1,4.3.7,6.1,6.1,0,0,1,2.8,2.1,4.9,4.9,0,0,1,.9,2.8A5.9,5.9,0,0,1,83,11a9.9,9.9,0,0,1-5.4,2.8,7.3,7.3,0,0,1,3.5,2.4,4.6,4.6,0,0,1,1.1,3.2,7.5,7.5,0,0,1-1,3.8A7,7,0,0,1,78.6,26a12.1,12.1,0,0,1-3.8,1.4,20.7,20.7,0,0,1-5,.4H60.1l.2-.7,2.1-.3a3.5,3.5,0,0,0,1.1-.9,22.3,22.3,0,0,0,1.3-3.4L69.5,6.4a11.6,11.6,0,0,0,.6-2.8,1.3,1.3,0,0,0-.5-1.1A3.6,3.6,0,0,0,67.5,2ZM67,26.1l3.3.2a8.4,8.4,0,0,0,5.4-1.8,5.9,5.9,0,0,0,2.4-5,4.7,4.7,0,0,0-1.5-3.7c-.9-.9-2.5-1.4-4.7-1.4H70.4ZM70.9,13h1.8c2.7,0,4.7-.5,6.1-1.7a5.8,5.8,0,0,0,1.9-4.4,4.2,4.2,0,0,0-1.2-3.2,5.7,5.7,0,0,0-3.8-1.1l-1.8.2Z" style="fill:#fff9f2"/><path d="M87.5,11.2l6.8-1.1-2.9,9.5a32.4,32.4,0,0,1,6.3-8.2,4.3,4.3,0,0,1,2.5-1.3,1.4,1.4,0,0,1,1.1.4,1.6,1.6,0,0,1,.3,1.1A5,5,0,0,1,101,14a1.6,1.6,0,0,1-1.4.9,1.3,1.3,0,0,1-.8-.3,1.9,1.9,0,0,1-.4-.9.7.7,0,0,0-.1-.5h-1a5.8,5.8,0,0,0-1.6,1.6,39.7,39.7,0,0,0-3.5,4.9,25.9,25.9,0,0,0-1.4,2.9,25.2,25.2,0,0,0-.9,2.7l-.7,2.5H86.3l3.6-12.2a12.7,12.7,0,0,0,.6-3,.5.5,0,0,0-.3-.5,1.3,1.3,0,0,0-1-.4l-1.5.2Z" style="fill:#fff9f2"/><path d="M118,16.2a12.2,12.2,0,0,1-1.5,5.8,12.9,12.9,0,0,1-4.4,4.6,10.2,10.2,0,0,1-5.4,1.6,5.6,5.6,0,0,1-4.3-1.7,6,6,0,0,1-1.7-4.4,11.8,11.8,0,0,1,1.6-5.8,12.1,12.1,0,0,1,4.5-4.5,10.3,10.3,0,0,1,5.3-1.7,5.7,5.7,0,0,1,4.2,1.7A5.7,5.7,0,0,1,118,16.2Zm-3.2-1.3a3.9,3.9,0,0,0-.9-2.8,2.9,2.9,0,0,0-2.3-1c-1.9,0-3.7,1.4-5.3,4.1a16.4,16.4,0,0,0-2.4,8.2,4.4,4.4,0,0,0,.9,2.9,3.5,3.5,0,0,0,2.4,1c1.8,0,3.5-1.4,5.2-4.1A16.5,16.5,0,0,0,114.8,14.9Z" style="fill:#fff9f2"/><path d="M131,0l-5.6,19.2,2.2-1.9a31,31,0,0,0,4.8-4.6,1.3,1.3,0,0,0,.3-.7.4.4,0,0,0-.1-.3l-.4-.3h-1.9l.2-.7H139l-.2.7a9.2,9.2,0,0,0-2.5.5,7.1,7.1,0,0,0-2.1,1.1l-2.6,2L130,16.4c.3.9.6,2.3,1,3.9s1.2,4.5,1.4,5,.5.8.8.8a1.2,1.2,0,0,0,.8-.4,9.8,9.8,0,0,0,2.2-2.3l.6.5a24.5,24.5,0,0,1-3.2,3.5,3.5,3.5,0,0,1-2.1.8,1.6,1.6,0,0,1-1.3-.6c-.5-.8-1.3-3.8-2.6-9.1L125,20.8l-2,7h-3.1l6.5-22.3.5-1.9a2.8,2.8,0,0,0,.1-.9.9.9,0,0,0-.3-.7,1.4,1.4,0,0,0-1.1-.4l-1.4.2V1.2Z" style="fill:#fff9f2"/><path d="M142,20.4a10.4,10.4,0,0,0-.1,1.6,4.1,4.1,0,0,0,4.2,4.2,6,6,0,0,0,2.7-.6,16.9,16.9,0,0,0,3.9-2.5l.4.6c-3.1,3-6,4.5-8.8,4.5a5.1,5.1,0,0,1-4.3-1.8,6,6,0,0,1-1.5-3.9,11.9,11.9,0,0,1,1.8-6,13.6,13.6,0,0,1,4.5-4.7,10.7,10.7,0,0,1,5.6-1.7,5.2,5.2,0,0,1,3.1.8,3,3,0,0,1,1,2,5,5,0,0,1-1.3,3.1,11.7,11.7,0,0,1-5,3.2A30.8,30.8,0,0,1,142,20.4Zm.2-.9a16.9,16.9,0,0,0,4.7-1.2,10.3,10.3,0,0,0,3.6-2.5,4.8,4.8,0,0,0,1.2-2.9,1.9,1.9,0,0,0-.5-1.3,2,2,0,0,0-1.5-.5,6.4,6.4,0,0,0-4.2,2.1A12.6,12.6,0,0,0,142.2,19.5Z" style="fill:#fff9f2"/><path d="M163.9,10.1,161.3,19a51.9,51.9,0,0,1,5.5-7.2,6.1,6.1,0,0,1,3.8-1.7,2.3,2.3,0,0,1,1.6.6,2.5,2.5,0,0,1,.6,1.7,15,15,0,0,1-.5,3.1l-2.4,8.3a6.9,6.9,0,0,0-.4,1.7.9.9,0,0,0,.1.5l.4.2.5-.3a11.5,11.5,0,0,0,2.3-2.5l.6.4a18.1,18.1,0,0,1-3.4,3.7,4,4,0,0,1-2.1.7,1.5,1.5,0,0,1-1.1-.4,1.6,1.6,0,0,1-.4-1.2,14.8,14.8,0,0,1,.6-3.2l2.3-7.9a7.3,7.3,0,0,0,.4-2.2,1.4,1.4,0,0,0-.2-.7l-.7-.2a2.1,2.1,0,0,0-1.3.5,11.3,11.3,0,0,0-3,2.9,45.7,45.7,0,0,0-3.3,5.1,17.9,17.9,0,0,0-1.5,3.7l-1,3.2h-2.9l3.5-12.3a11,11,0,0,0,.7-2.6,1,1,0,0,0-.4-.8,1.1,1.1,0,0,0-.8-.3h-1.6v-.7Z" style="fill:#fff9f2"/><path d="M174.6,32.2a7.4,7.4,0,0,0,2.4-1.7,2.1,2.1,0,0,0,.7-1.5,1.7,1.7,0,0,0-.1-.7l-.6-.6-.5-.6a2.2,2.2,0,0,1-.1-.8,2.2,2.2,0,0,1,.5-1.4,1.9,1.9,0,0,1,2.8,0,2.3,2.3,0,0,1,.6,1.6A5.4,5.4,0,0,1,179,30a9.3,9.3,0,0,1-4,2.8Z" style="fill:#fff9f2"/></g><g style="isolation:isolate"><path d="M58.7,34,53.2,53a38,38,0,0,1,5.6-7.1,5.8,5.8,0,0,1,3.8-1.8,2.3,2.3,0,0,1,1.6.6,2.6,2.6,0,0,1,.6,1.8,10.4,10.4,0,0,1-.6,3.1l-2.3,8.2c-.3,1-.5,1.5-.5,1.6s.1.3.2.5H62l.5-.2a13.3,13.3,0,0,0,2.3-2.4l.6.4A17.4,17.4,0,0,1,63.5,60a13.8,13.8,0,0,1-2,1.8,3.4,3.4,0,0,1-1.5.4,1.6,1.6,0,0,1-1.2-.4,1.7,1.7,0,0,1-.5-1.2,19,19,0,0,1,.7-3.2l2.3-7.8a15.9,15.9,0,0,0,.4-2.3,1.1,1.1,0,0,0-.9-.9,2.7,2.7,0,0,0-1.3.5,10.5,10.5,0,0,0-3,3,50.8,50.8,0,0,0-3.2,4.9,13.6,13.6,0,0,0-1.3,3l-1.3,4H47.8l6.4-22.4.7-2.4a1.2,1.2,0,0,0-.4-.9,1.3,1.3,0,0,0-1-.4H52v-.8Z" style="fill:#fff9f2"/><path d="M85.8,44.1,82,57.3l-.5,1.8v.4c0,.3,0,.4.2.6l.4.2.6-.3a14.4,14.4,0,0,0,2.1-2.4l.6.5a12.2,12.2,0,0,1-2.8,3.1,4.3,4.3,0,0,1-2.6,1,1.7,1.7,0,0,1-1.3-.4,2.1,2.1,0,0,1-.4-1.2,9.9,9.9,0,0,1,.5-2.5l.4-1.5a20.6,20.6,0,0,1-4.7,4.7,6.4,6.4,0,0,1-3.1.9A3.4,3.4,0,0,1,69,61.1a4.9,4.9,0,0,1-1.1-3.3,14.1,14.1,0,0,1,1.9-6.5,16.2,16.2,0,0,1,4.7-5.6,7.2,7.2,0,0,1,4.3-1.6,3.4,3.4,0,0,1,2,.6A4.2,4.2,0,0,1,82,46.8l.7-2.2Zm-7,1a4.1,4.1,0,0,0-2.6,1.2,13.9,13.9,0,0,0-3.6,4.9,14.3,14.3,0,0,0-1.5,5.9,3.3,3.3,0,0,0,.6,2.1,2.2,2.2,0,0,0,1.5.8c1.5,0,3-1.1,4.7-3.2a13.6,13.6,0,0,0,3.3-8.5,3.8,3.8,0,0,0-.6-2.4A2.3,2.3,0,0,0,78.8,45.1Z" style="fill:#fff9f2"/><path d="M105.8,44.6l-3.4,11.6a14.6,14.6,0,0,0-.7,3.3.7.7,0,0,0,.1.5l.3.2a1.3,1.3,0,0,0,.8-.3l2-2.4.6.4a14.5,14.5,0,0,1-3.2,3.6,3.5,3.5,0,0,1-2.1.7,1.2,1.2,0,0,1-1.1-.4,1.4,1.4,0,0,1-.5-1.1,8.2,8.2,0,0,1,.3-1.8c.2-.9.8-3,1.8-6.2a42,42,0,0,1-5.6,7.5,6.3,6.3,0,0,1-4.2,2,2,2,0,0,1-1.5-.6,2.1,2.1,0,0,1-.6-1.6,19.1,19.1,0,0,1,.9-4.5l1.7-6a13.5,13.5,0,0,0,.6-2.7.8.8,0,0,0-.2-.4l-.3-.2a1.6,1.6,0,0,0-.9.3l-1.8,2.2-.6-.4a11.5,11.5,0,0,1,3.1-3.4,4.6,4.6,0,0,1,2.3-.8,1.7,1.7,0,0,1,1.2.5,1.5,1.5,0,0,1,.4,1.1,13.3,13.3,0,0,1-.8,3.8l-1.8,6.3a17.4,17.4,0,0,0-.8,3.3.9.9,0,0,0,.3.6l.6.2a3.5,3.5,0,0,0,1.7-.6,15.6,15.6,0,0,0,2.8-2.9,38.2,38.2,0,0,0,2.8-4.2,25.5,25.5,0,0,0,2.4-6.1l.5-1.5Z" style="fill:#fff9f2"/><path d="M115.8,44.1,113.2,53a50.3,50.3,0,0,1,5.6-7.2,6.1,6.1,0,0,1,3.8-1.7,2.3,2.3,0,0,1,1.6.6,2.5,2.5,0,0,1,.6,1.7,11,11,0,0,1-.6,3.1l-2.3,8.3a6.9,6.9,0,0,0-.4,1.7.9.9,0,0,0,.1.5l.3.2a.9.9,0,0,0,.6-.3,11.5,11.5,0,0,0,2.3-2.5l.6.4a15.8,15.8,0,0,1-3.5,3.7,3.5,3.5,0,0,1-2,.7,1.2,1.2,0,0,1-1.1-.4,1.7,1.7,0,0,1-.5-1.2,11.5,11.5,0,0,1,.7-3.2l2.3-7.9a13.1,13.1,0,0,0,.4-2.2.9.9,0,0,0-.3-.7.8.8,0,0,0-.6-.2,2,2,0,0,0-1.3.5,9,9,0,0,0-3,2.9,45.7,45.7,0,0,0-3.3,5.1,17.9,17.9,0,0,0-1.5,3.7l-1,3.2h-2.9l3.5-12.3a14.9,14.9,0,0,0,.6-2.6,1.3,1.3,0,0,0-.3-.8,1.1,1.1,0,0,0-.8-.3h-1.6v-.7Z" style="fill:#fff9f2"/><path d="M137.4,39.3l-1.5,5.3h3l-.3,1.2h-3l-3.4,11.5a12.6,12.6,0,0,0-.6,2.4.8.8,0,0,0,.2.5.5.5,0,0,0,.4.2,2.3,2.3,0,0,0,1.3-.7,16,16,0,0,0,2.1-2.4l.6.5a12.5,12.5,0,0,1-3.4,3.7,3.8,3.8,0,0,1-2.2.7,1.7,1.7,0,0,1-1.4-.5,1.8,1.8,0,0,1-.6-1.4,10.9,10.9,0,0,1,.7-3.2l3.2-11.3h-2.9l.2-.8a8.8,8.8,0,0,0,3.5-1.7,14.2,14.2,0,0,0,3.2-4Z" style="fill:#fff9f2"/><path d="M147.3,44.1l-3.9,13.7a15.4,15.4,0,0,0-.3,1.6,1.1,1.1,0,0,0,.1.6l.5.2c.2,0,.4-.2.7-.4a9.3,9.3,0,0,0,2.2-2.5l.7.5a14.5,14.5,0,0,1-3.1,3.4,4.1,4.1,0,0,1-2.6,1,2,2,0,0,1-1.3-.4,2.1,2.1,0,0,1-.5-1.2,11.3,11.3,0,0,1,.5-2.4l2.6-8.8a13.5,13.5,0,0,0,.6-2.7.9.9,0,0,0-.3-.7,1.1,1.1,0,0,0-.8-.3l-1.8.3v-.8Zm-.2-7.8a1.6,1.6,0,0,1,1.3.6,1.9,1.9,0,0,1,0,2.8,1.5,1.5,0,0,1-1.3.5,1.7,1.7,0,0,1-1.4-.5,1.9,1.9,0,0,1,0-2.8A1.7,1.7,0,0,1,147.1,36.3Z" style="fill:#fff9f2"/><path d="M158.1,44.1,155.5,53a43.9,43.9,0,0,1,5.6-7.2,5.7,5.7,0,0,1,3.7-1.7,2.3,2.3,0,0,1,1.6.6,2.5,2.5,0,0,1,.6,1.7,15,15,0,0,1-.5,3.1l-2.4,8.3a6.9,6.9,0,0,0-.4,1.7.9.9,0,0,0,.1.5l.4.2.5-.3a11.5,11.5,0,0,0,2.3-2.5l.6.4a18.1,18.1,0,0,1-3.4,3.7,4,4,0,0,1-2.1.7,1.5,1.5,0,0,1-1.1-.4,1.6,1.6,0,0,1-.4-1.2,14.8,14.8,0,0,1,.6-3.2l2.3-7.9a7.3,7.3,0,0,0,.4-2.2,1.4,1.4,0,0,0-.2-.7l-.7-.2a2.1,2.1,0,0,0-1.3.5,11.3,11.3,0,0,0-3,2.9,45.7,45.7,0,0,0-3.3,5.1,17.9,17.9,0,0,0-1.5,3.7l-1,3.2H150l3.5-12.3a11,11,0,0,0,.7-2.6,1,1,0,0,0-.4-.8,1.1,1.1,0,0,0-.8-.3h-1.6v-.7Z" style="fill:#fff9f2"/><path d="M190.1,45.3l-.6,2h-3.3a5.1,5.1,0,0,1,.4,2,6,6,0,0,1-2.2,4.6,9.3,9.3,0,0,1-6,2.2,8.1,8.1,0,0,0-3.1,1.5.8.8,0,0,0-.4.7,1.1,1.1,0,0,0,.3.7,5.1,5.1,0,0,0,1.8.6l3.8.9c2.1.5,3.5,1.1,4.1,1.8a3,3,0,0,1,1,2.3,4.3,4.3,0,0,1-1.1,3,8,8,0,0,1-3.5,2.1,15.9,15.9,0,0,1-5,.7,15.1,15.1,0,0,1-4.4-.6,6.5,6.5,0,0,1-2.9-1.5,2.9,2.9,0,0,1-.8-2,3.1,3.1,0,0,1,.5-1.8,5,5,0,0,1,1.4-1.5l3-1.7a2.1,2.1,0,0,1-.9-1.6,2.4,2.4,0,0,1,.8-1.6,9,9,0,0,1,3.3-2,5.4,5.4,0,0,1-3.4-1.8,4.5,4.5,0,0,1-1.2-3.1,6.4,6.4,0,0,1,2.4-4.9,9.2,9.2,0,0,1,6.5-2.2,7.8,7.8,0,0,1,2.4.3l1.8.9ZM173.9,61.8a7.6,7.6,0,0,0-2.4,1.8,4.3,4.3,0,0,0-.8,2.3,2.6,2.6,0,0,0,1.2,2.1,8.4,8.4,0,0,0,4.9,1.2,10,10,0,0,0,4.8-1c1.3-.6,2-1.4,2-2.4a1.9,1.9,0,0,0-.8-1.4,5.2,5.2,0,0,0-2.8-1.2Zm9.4-13.4a3.3,3.3,0,0,0-.9-2.5,3,3,0,0,0-2.3-.9,4.5,4.5,0,0,0-3.6,2.2,8.1,8.1,0,0,0-1.4,4.7,3.2,3.2,0,0,0,.9,2.4,2.7,2.7,0,0,0,2.2,1,3.6,3.6,0,0,0,2-.6,4.1,4.1,0,0,0,1.6-1.6,7.2,7.2,0,0,0,1.1-2.5A8.5,8.5,0,0,0,183.3,48.4Z" style="fill:#fff9f2"/><path d="M188.8,66.2a7.4,7.4,0,0,0,2.4-1.7,2.1,2.1,0,0,0,.7-1.5,1.5,1.5,0,0,0-.1-.7l-.6-.6-.5-.6a2.2,2.2,0,0,1-.1-.8,1.8,1.8,0,0,1,.6-1.4,1.6,1.6,0,0,1,1.3-.6,2,2,0,0,1,1.4.6,2.3,2.3,0,0,1,.6,1.6,5.4,5.4,0,0,1-1.3,3.5,9.3,9.3,0,0,1-4,2.8Z" style="fill:#fff9f2"/></g><g style="isolation:isolate"><path d="M60.5,73,56.7,86.5A12.2,12.2,0,0,1,60,83.8a5.9,5.9,0,0,1,2.9-.7,4.8,4.8,0,0,1,3.5,1.4,5.6,5.6,0,0,1,1.4,3.9A12,12,0,0,1,66,94.6a14.2,14.2,0,0,1-4.5,4.9,9.5,9.5,0,0,1-5.4,1.7,9.9,9.9,0,0,1-6-2.2L56,78.6c.4-1.6.7-2.5.7-2.8a.8.8,0,0,0-.3-.7,2,2,0,0,0-1.4-.4H53.8v-.7ZM53,99.2a5.9,5.9,0,0,0,7-.1,10.7,10.7,0,0,0,3.2-4.3,14.4,14.4,0,0,0,1.3-6,3.9,3.9,0,0,0-.8-2.8,2.6,2.6,0,0,0-2.1-1A5.3,5.3,0,0,0,58,86.4a7.8,7.8,0,0,0-2.5,4.1Z" style="fill:#fff9f2"/><path d="M71.1,84.2l6.7-1.1L75,92.6a35,35,0,0,1,6.2-8.2,4.5,4.5,0,0,1,2.6-1.3,1.2,1.2,0,0,1,1,.4,1.2,1.2,0,0,1,.4,1.1,4.2,4.2,0,0,1-.7,2.4,1.4,1.4,0,0,1-1.3.9,1.1,1.1,0,0,1-.8-.3,1.9,1.9,0,0,1-.4-.9.8.8,0,0,0-.2-.5h-1a8,8,0,0,0-1.5,1.6,31.3,31.3,0,0,0-3.5,4.9,15.5,15.5,0,0,0-1.4,2.9c-.6,1.5-.9,2.4-1,2.7l-.6,2.5h-3l3.6-12.2a9.9,9.9,0,0,0,.7-3,.5.5,0,0,0-.3-.5,1.4,1.4,0,0,0-1.1-.4l-1.5.2Z" style="fill:#fff9f2"/><path d="M93.8,83.1,89.9,96.8a8,8,0,0,0-.4,1.6,1.1,1.1,0,0,0,.2.6l.4.2a1.3,1.3,0,0,0,.7-.4,9.5,9.5,0,0,0,2.3-2.5l.7.5a14.8,14.8,0,0,1-3.2,3.4,3.8,3.8,0,0,1-2.5,1,1.8,1.8,0,0,1-1.3-.4,2.1,2.1,0,0,1-.5-1.2,7.2,7.2,0,0,1,.5-2.4l2.5-8.8a13.5,13.5,0,0,0,.6-2.7.9.9,0,0,0-.3-.7,1,1,0,0,0-.8-.3L87,85v-.8Zm-.3-7.8a2.1,2.1,0,0,1,2,2,2,2,0,0,1-.6,1.4,2.2,2.2,0,0,1-2.8,0,2.4,2.4,0,0,1-.5-1.4,1.7,1.7,0,0,1,.5-1.4A2,2,0,0,1,93.5,75.3Z" style="fill:#fff9f2"/><path d="M107.6,73l-6.7,23.2a16.5,16.5,0,0,0-.5,2.2c0,.2.1.3.2.5l.5.2.8-.4a11.7,11.7,0,0,0,2.1-2.5l.6.6a14,14,0,0,1-3.5,3.7,3.5,3.5,0,0,1-2.1.7,1.7,1.7,0,0,1-1.3-.5,1.6,1.6,0,0,1-.5-1.1,13.2,13.2,0,0,1,.6-2.9l5.3-18.3a14.2,14.2,0,0,0,.7-2.6.9.9,0,0,0-.4-.8,1.6,1.6,0,0,0-1.1-.3h-1.4v-.7Z" style="fill:#fff9f2"/><path d="M118.7,73,112,96.2a16.5,16.5,0,0,0-.5,2.2c0,.2.1.3.2.5l.5.2.8-.4a9.4,9.4,0,0,0,2.1-2.5l.6.6a15.8,15.8,0,0,1-3.4,3.7,4,4,0,0,1-2.2.7,1.7,1.7,0,0,1-1.3-.5,1.6,1.6,0,0,1-.5-1.1,10.2,10.2,0,0,1,.7-2.9l5.3-18.3a20.8,20.8,0,0,0,.6-2.6.9.9,0,0,0-.4-.8,1.6,1.6,0,0,0-1.1-.3H112v-.7Z" style="fill:#fff9f2"/><path d="M127.1,83.1l-3.9,13.7c-.2.9-.4,1.5-.4,1.6a1.1,1.1,0,0,0,.2.6l.5.2c.2,0,.4-.2.7-.4a9.3,9.3,0,0,0,2.2-2.5l.7.5a14.5,14.5,0,0,1-3.1,3.4,4.3,4.3,0,0,1-2.6,1,2,2,0,0,1-1.3-.4,2.1,2.1,0,0,1-.5-1.2,11.3,11.3,0,0,1,.5-2.4l2.6-8.8a13.5,13.5,0,0,0,.6-2.7.9.9,0,0,0-.3-.7,1.2,1.2,0,0,0-.9-.3l-1.7.3v-.8Zm-.2-7.8a1.6,1.6,0,0,1,1.3.6,1.8,1.8,0,0,1,.6,1.4,2,2,0,0,1-.6,1.4,1.7,1.7,0,0,1-1.3.5,1.7,1.7,0,0,1-1.4-.5,2,2,0,0,1-.6-1.4,1.8,1.8,0,0,1,.6-1.4A1.7,1.7,0,0,1,126.9,75.3Z" style="fill:#fff9f2"/><path d="M147.8,83.1,144,96.3l-.4,1.8a.8.8,0,0,0-.1.4,1.1,1.1,0,0,0,.2.6l.4.2a1.1,1.1,0,0,0,.6-.3,14.4,14.4,0,0,0,2.1-2.4l.6.5a14.3,14.3,0,0,1-2.7,3.1,4.8,4.8,0,0,1-2.7,1,1.5,1.5,0,0,1-1.2-.4,1.7,1.7,0,0,1-.5-1.2,9.9,9.9,0,0,1,.5-2.5l.4-1.5a20.6,20.6,0,0,1-4.7,4.7,6.1,6.1,0,0,1-3,.9,3.4,3.4,0,0,1-2.5-1.1,4.8,4.8,0,0,1-1-3.3,13.9,13.9,0,0,1,1.8-6.5,16.4,16.4,0,0,1,4.8-5.6,7.2,7.2,0,0,1,4.2-1.6,3.2,3.2,0,0,1,2,.6,4.2,4.2,0,0,1,1.2,2.1l.7-2.2Zm-7,1a4.1,4.1,0,0,0-2.6,1.2,15.2,15.2,0,0,0-3.6,4.9,14.3,14.3,0,0,0-1.5,5.9,3.3,3.3,0,0,0,.6,2.1,2.3,2.3,0,0,0,1.6.8c1.4,0,2.9-1.1,4.6-3.2a13.6,13.6,0,0,0,3.3-8.5,3.8,3.8,0,0,0-.6-2.4A2.2,2.2,0,0,0,140.8,84.1Z" style="fill:#fff9f2"/><path d="M157.8,83.1,155.2,92a50.3,50.3,0,0,1,5.6-7.2,6.1,6.1,0,0,1,3.8-1.7,2.3,2.3,0,0,1,1.6.6,2.5,2.5,0,0,1,.6,1.7,15,15,0,0,1-.5,3.1l-2.4,8.3a6.9,6.9,0,0,0-.4,1.7.9.9,0,0,0,.1.5l.4.2.5-.3a11.5,11.5,0,0,0,2.3-2.5l.6.4a18.1,18.1,0,0,1-3.4,3.7,4,4,0,0,1-2.1.7,1.4,1.4,0,0,1-1.1-.4,1.7,1.7,0,0,1-.5-1.2,17.2,17.2,0,0,1,.7-3.2l2.3-7.9a7.3,7.3,0,0,0,.4-2.2,1.4,1.4,0,0,0-.2-.7l-.7-.2a2.1,2.1,0,0,0-1.3.5,11.3,11.3,0,0,0-3,2.9,45.7,45.7,0,0,0-3.3,5.1,17.9,17.9,0,0,0-1.5,3.7l-1,3.2h-2.9l3.5-12.3a11,11,0,0,0,.7-2.6c0-.3-.2-.5-.4-.8a1.1,1.1,0,0,0-.8-.3h-1.6v-.7Z" style="fill:#fff9f2"/><path d="M179.4,78.3l-1.5,5.3H181l-.4,1.2h-3l-3.4,11.5a9.6,9.6,0,0,0-.5,2.4.7.7,0,0,0,.1.5l.4.2a2.1,2.1,0,0,0,1.3-.7,16,16,0,0,0,2.1-2.4l.6.5a12.5,12.5,0,0,1-3.4,3.7,3.6,3.6,0,0,1-2.2.7,1.7,1.7,0,0,1-1.9-1.9,13.9,13.9,0,0,1,.6-3.2l3.2-11.3h-2.9l.2-.8a10,10,0,0,0,3.6-1.7,18.9,18.9,0,0,0,3.2-4Z" style="fill:#fff9f2"/></g><g style="isolation:isolate"><path d="M55.8,119.8v-7.2H59l1.4.2a1.8,1.8,0,0,1,.8.7,2,2,0,0,1,.3,1.1,2.1,2.1,0,0,1-.5,1.3,2.6,2.6,0,0,1-1.5.6l.6.4a3.5,3.5,0,0,1,.7.9l1.3,2H60.9l-.9-1.5-.7-1-.5-.5-.4-.2H56.7v3.2Zm.9-4h2.1l1-.2a.7.7,0,0,0,.5-.4.7.7,0,0,0,.2-.6,1.4,1.4,0,0,0-.3-.9,2.1,2.1,0,0,0-1.2-.3H56.7Z" style="fill:#fff9f2"/><path d="M64.6,117.2a2.6,2.6,0,0,1,.8-2.2,2.5,2.5,0,0,1,1.6-.5,2.1,2.1,0,0,1,1.7.7,2.4,2.4,0,0,1,.7,1.9,3.5,3.5,0,0,1-.3,1.6,2,2,0,0,1-.9.9,2.4,2.4,0,0,1-1.2.3,2.4,2.4,0,0,1-1.8-.7A3,3,0,0,1,64.6,117.2Zm.9,0a2.4,2.4,0,0,0,.4,1.5,1.4,1.4,0,0,0,1.1.5,1.6,1.6,0,0,0,1.1-.5,2.4,2.4,0,0,0,.4-1.5,2.1,2.1,0,0,0-.4-1.5,1.6,1.6,0,0,0-1.1-.5,1.4,1.4,0,0,0-1.1.5A2.1,2.1,0,0,0,65.5,117.2Z" style="fill:#fff9f2"/><path d="M75.8,117.9h.9a2.3,2.3,0,0,1-.7,1.4,2.5,2.5,0,0,1-1.5.5,2.2,2.2,0,0,1-1.7-.7,3,3,0,0,1-.6-2,3.3,3.3,0,0,1,.3-1.5,1.4,1.4,0,0,1,.8-.9,2.7,2.7,0,0,1,1.2-.3,2,2,0,0,1,1.4.4,1.9,1.9,0,0,1,.7,1.2h-.8a1.3,1.3,0,0,0-.5-.7.9.9,0,0,0-.7-.3,1.4,1.4,0,0,0-1.1.5,3,3,0,0,0,0,3,1.4,1.4,0,0,0,1.9.2A1.8,1.8,0,0,0,75.8,117.9Z" style="fill:#fff9f2"/><path d="M79.4,119.8v-7.2h.9v4.1l2.1-2.1h1.1l-1.9,1.9,2.1,3.3h-1l-1.8-2.7-.6.6v2.1Z" style="fill:#fff9f2"/><path d="M86.6,119.8v-7.2h3.7a1.9,1.9,0,0,1,.9.3,1.3,1.3,0,0,1,.6.7,3,3,0,0,1,.2,1,2,2,0,0,1-.6,1.5c-.3.5-1,.7-2.1.7H87.5v2.9Zm.9-3.8h1.9a2.3,2.3,0,0,0,1.3-.3,1.7,1.7,0,0,0,.3-1,1.2,1.2,0,0,0-.2-.8.9.9,0,0,0-.6-.4H87.5Z" style="fill:#fff9f2"/><path d="M98.5,119.1a2.4,2.4,0,0,1-.9.6l-1,.2a1.7,1.7,0,0,1-1.3-.4,1.6,1.6,0,0,1-.5-1.1,1.9,1.9,0,0,1,.2-.7l.4-.5.7-.3h.8l1.5-.3v-.2a1.3,1.3,0,0,0-.2-.8,1.5,1.5,0,0,0-1-.3l-.9.2a1.6,1.6,0,0,0-.5.8H95a1.3,1.3,0,0,1,.4-.9c.1-.3.4-.4.7-.5a2.5,2.5,0,0,1,1.2-.2h1.1l.6.4.3.6v2a5,5,0,0,0,.1,1.5,1.4,1.4,0,0,0,.2.7h-.9A1.4,1.4,0,0,1,98.5,119.1Zm-.1-1.9-1.4.3-.8.2q-.2,0-.3.3c-.1.1-.1.2-.1.4a.7.7,0,0,0,.2.6l.8.2.9-.2.6-.6a2.2,2.2,0,0,0,.1-.9Z" style="fill:#fff9f2"/><path d="M102.7,121.8v-7.2h.8v.7l.6-.6a1.3,1.3,0,0,1,.9-.2,2.7,2.7,0,0,1,1.2.3,2.6,2.6,0,0,1,.7,1,2.8,2.8,0,0,1,.3,1.3,3.7,3.7,0,0,1-.3,1.5,3.9,3.9,0,0,1-.8,1,2.7,2.7,0,0,1-1.2.3l-.8-.2-.5-.5v2.6Zm.8-4.6a2.1,2.1,0,0,0,.4,1.5,1.2,1.2,0,0,0,1,.5,1.6,1.6,0,0,0,1-.5,3.4,3.4,0,0,0,.4-1.6,2.6,2.6,0,0,0-.4-1.4,1.2,1.2,0,0,0-2,0A2.1,2.1,0,0,0,103.5,117.2Z" style="fill:#fff9f2"/><path d="M113.8,118.1h.9a2.2,2.2,0,0,1-.8,1.3,3.3,3.3,0,0,1-1.5.4,2.4,2.4,0,0,1-1.8-.7,3,3,0,0,1-.7-2,3.2,3.2,0,0,1,.7-2,2.3,2.3,0,0,1,1.8-.7,2.2,2.2,0,0,1,1.7.7,3,3,0,0,1,.6,2v.2h-3.8a1.7,1.7,0,0,0,.4,1.3,1.6,1.6,0,0,0,1.1.5,1.1,1.1,0,0,0,.8-.3A1.2,1.2,0,0,0,113.8,118.1Zm-2.9-1.4h2.9a2,2,0,0,0-.3-1,1.6,1.6,0,0,0-1.1-.5,1.2,1.2,0,0,0-1,.4A1.4,1.4,0,0,0,110.9,116.7Z" style="fill:#fff9f2"/><path d="M117.8,119.8v-5.2h.8v.8l.5-.8h.6a1.6,1.6,0,0,1,.9.3l-.3.8a1,1,0,0,0-1.2,0l-.3.4a3.7,3.7,0,0,0-.1,1.1v2.7Z" style="fill:#fff9f2"/><path d="M122.9,117.5h.9l.3.9a1.8,1.8,0,0,0,.7.5,2.2,2.2,0,0,0,1.1.2h1a1,1,0,0,0,.6-.5.8.8,0,0,0,.2-.6,1.4,1.4,0,0,0-.2-.6l-.6-.4-1.3-.3-1.4-.5-.8-.6a2.9,2.9,0,0,1-.2-.9,1.7,1.7,0,0,1,.3-1,1.8,1.8,0,0,1,.9-.8l1.3-.2,1.4.2a2.4,2.4,0,0,1,.9.8,1.5,1.5,0,0,1,.4,1.1h-.9c-.1-.5-.2-.8-.5-1a1.7,1.7,0,0,0-1.3-.4,2.1,2.1,0,0,0-1.2.3,1,1,0,0,0-.4.8.6.6,0,0,0,.3.6,2.4,2.4,0,0,0,1.4.5l1.6.5a2.2,2.2,0,0,1,.9.7,2,2,0,0,1,.3,1.1,1.9,1.9,0,0,1-.3,1,1.6,1.6,0,0,1-1,.8,2.8,2.8,0,0,1-1.3.3,4.3,4.3,0,0,1-1.7-.3,3.9,3.9,0,0,1-1-.8A2.8,2.8,0,0,1,122.9,117.5Z" style="fill:#fff9f2"/><path d="M131.8,119.8v-7.2h.9v2.6a1.8,1.8,0,0,1,1.5-.7,1.6,1.6,0,0,1,1,.2,1.2,1.2,0,0,1,.6.6,2.2,2.2,0,0,1,.2,1.2v3.3h-.9v-3.3a2.2,2.2,0,0,0-.2-1,1.2,1.2,0,0,0-.9-.3l-.7.2c-.2.2-.4.3-.5.6a2.2,2.2,0,0,0-.1.9v2.9Z" style="fill:#fff9f2"/><path d="M139,117.2a2.9,2.9,0,0,1,.8-2.2,3.1,3.1,0,0,1,1.7-.5,2.1,2.1,0,0,1,1.7.7,2.4,2.4,0,0,1,.7,1.9,3.5,3.5,0,0,1-.3,1.6,2,2,0,0,1-.9.9,2.7,2.7,0,0,1-1.2.3,2.3,2.3,0,0,1-1.8-.7A3,3,0,0,1,139,117.2Zm.9,0a2.5,2.5,0,0,0,.5,1.5,1.4,1.4,0,0,0,1.1.5,1.6,1.6,0,0,0,1.1-.5,3.3,3.3,0,0,0,.4-1.5,2.1,2.1,0,0,0-.5-1.5,1.2,1.2,0,0,0-1-.5,1.4,1.4,0,0,0-1.1.5A2.1,2.1,0,0,0,139.9,117.2Z" style="fill:#fff9f2"/><path d="M148.8,119l.2.8h-1.4l-.4-.4a2.5,2.5,0,0,1-.1-1v-3h-.7v-.7h.7v-1.3l.9-.5v1.8h.8v.7H148v3.5c0,.1.1.1.2.2h.6Z" style="fill:#fff9f2"/><path d="M151.5,120.2h.9a.6.6,0,0,0,.3.6c.2.2.5.2.9.2s.7,0,.9-.2a1.8,1.8,0,0,0,.5-.7v-1.1a1.7,1.7,0,0,1-1.4.7,2.1,2.1,0,0,1-1.7-.8,3.5,3.5,0,0,1-.5-1.8,5.9,5.9,0,0,1,.2-1.4,2.7,2.7,0,0,1,.8-1,2.1,2.1,0,0,1,1.2-.3,1.8,1.8,0,0,1,1.5.7v-.6h.8v4.5a6.5,6.5,0,0,1-.2,1.7,2,2,0,0,1-.8.8,2.8,2.8,0,0,1-1.3.3,3.3,3.3,0,0,1-1.5-.4A1.5,1.5,0,0,1,151.5,120.2Zm.8-3.1a2.1,2.1,0,0,0,.4,1.5,1.2,1.2,0,0,0,1,.4,1.3,1.3,0,0,0,1-.4,2.1,2.1,0,0,0,.4-1.5,2,2,0,0,0-.4-1.4,1.4,1.4,0,0,0-1-.5,1.2,1.2,0,0,0-1,.5A2,2,0,0,0,152.3,117.1Z" style="fill:#fff9f2"/><path d="M162.7,119.8V119a2,2,0,0,1-1.7.9l-.8-.2-.6-.4a.9.9,0,0,1-.3-.7c0-.2-.1-.4-.1-.8v-3.2h.9v2.9a2.2,2.2,0,0,0,.1.9.5.5,0,0,0,.3.5,1.3,1.3,0,0,0,1.4,0,.8.8,0,0,0,.5-.5,3,3,0,0,0,.2-1v-2.8h.8v5.2Z" style="fill:#fff9f2"/><path d="M166.8,119.8v-5.2h.8v.7a2,2,0,0,1,1.7-.8h.8c.3.2.5.3.6.5l.3.6v4.1h-.8v-3.2c0-.3-.1-.6-.1-.8a.8.8,0,0,0-.4-.4l-.6-.2a1.8,1.8,0,0,0-1,.4c-.3.2-.4.7-.4,1.3v2.9Z" style="fill:#fff9f2"/></g><path d="M37,8.3a31.4,31.4,0,0,0-6,4.9,106.2,106.2,0,0,0-9.1,11,55.5,55.5,0,0,0-5.6,9.4,56.4,56.4,0,0,0-3.7,10.7A40.7,40.7,0,0,0,12.8,62c2,8.4,8.5,15.5,14.9,21.2s11.8,7.4,17.7,9.6l.6-1.7c-5.9-2.1-12.1-5-16.9-9.3S17.2,69.6,14.7,61.6a35.3,35.3,0,0,1-1.1-15.5,59.7,59.7,0,0,1,4.2-13.2A40.4,40.4,0,0,1,22.7,24a100.4,100.4,0,0,1,8.2-10.1,36.7,36.7,0,0,1,6.5-5.3Z" style="fill:#e56b6f"/><path d="M34.5,87.7a19.1,19.1,0,0,0-7.5-.9c-5.3.6-5.7,3.9-5.7,3.9s2.1,1.3,6.6.8A9.4,9.4,0,0,0,34.5,87.7Z" style="fill:#e56b6f"/><path d="M27.4,82.8a18.4,18.4,0,0,0-6.9-1.7c-5.7.1-6.1,3.2-6.1,3.2s2.1,1.5,6.7,1.4S27.4,82.8,27.4,82.8Z" style="fill:#e56b6f"/><path d="M22.1,77.6s-3.3-3-6.6-3.8c-5.5-1.4-7.4,1.9-7.4,1.9a13.8,13.8,0,0,0,6.6,3.6C19.8,80.6,22.1,77.6,22.1,77.6Z" style="fill:#e56b6f"/><path d="M16.2,69.6a18.7,18.7,0,0,0-6.8-4.3C4.3,63.8,1.9,66.9,1.9,67a12.4,12.4,0,0,0,6.4,3.8C14.2,72.4,16.2,69.6,16.2,69.6Z" style="fill:#e56b6f"/><path d="M13.4,63.3a17.8,17.8,0,0,0-6.7-6.1C2.9,55.3.1,56.9,0,57a14.5,14.5,0,0,0,5.6,5.4C10.6,64.8,13.4,63.3,13.4,63.3Z" style="fill:#e56b6f"/><path d="M12.5,57.7C11.1,56.3,11,52.6,9,49.6a8.9,8.9,0,0,0-7.6-3.8s.5,5.2,4,8.4A13.2,13.2,0,0,0,12.5,57.7Z" style="fill:#e56b6f"/><path d="M12.1,48.9a23.2,23.2,0,0,0-1-7.9,8.7,8.7,0,0,0-6.2-5.7s-.7,5.1,1.9,9.1S12.1,48.9,12.1,48.9Z" style="fill:#e56b6f"/><path d="M14,40.5a26.4,26.4,0,0,0,.5-7.4c-.7-5.4-4.9-6.6-5-6.6a14.3,14.3,0,0,0,.6,9.3C12.1,40.1,14,40.5,14,40.5Z" style="fill:#e56b6f"/><path d="M17.7,31.4a17.4,17.4,0,0,0,1.2-7.1c-.2-5-3.6-7.1-3.7-7.1s-3.2,2.9-1.3,9.3C15,30.4,17.7,31.4,17.7,31.4Z" style="fill:#e56b6f"/><path d="M22.3,23.9A21.8,21.8,0,0,0,25.1,17,14.4,14.4,0,0,0,24,9.6s-3.5,1.6-3.4,7.6A14.5,14.5,0,0,0,22.3,23.9Z" style="fill:#e56b6f"/><path d="M28.1,16.7a14.7,14.7,0,0,0,3.2-6.5c.6-3.2,0-6.6-.6-7.4s-3.3,2.1-3.6,7.4S27.8,16.1,28.1,16.7Z" style="fill:#e56b6f"/><path d="M32.2,12.3s4.9.2,7.4-1.2A17.2,17.2,0,0,0,45.2,5a8.1,8.1,0,0,0-8.3,1.5A20.3,20.3,0,0,0,32.2,12.3Z" style="fill:#e56b6f"/><path d="M26.8,18.3a11.6,11.6,0,0,1,6.4-3.5,9.4,9.4,0,0,1,7,.9,10.2,10.2,0,0,1-6.9,3.4A13.2,13.2,0,0,1,26.8,18.3Z" style="fill:#e56b6f"/><path d="M22,24.7a10.6,10.6,0,0,1,6.2-3.4c3.1-.5,4.6,0,6.2.9A8.9,8.9,0,0,1,28,25.6C24,26,22.6,25,22,24.7Z" style="fill:#e56b6f"/><path d="M17.3,33.1a15.3,15.3,0,0,1,5.8-4.9c3.9-1.7,5.9-.9,7.5-.3-.5.8-2.7,4.2-6.2,5.2A14.2,14.2,0,0,1,17.3,33.1Z" style="fill:#e56b6f"/><path d="M14.5,40.5A14,14,0,0,1,20,35.2c3.7-1.9,5.8-1.3,7.5-.8-.5.8-2.4,4.3-5.9,5.6A12.3,12.3,0,0,1,14.5,40.5Z" style="fill:#e56b6f"/><path d="M13,49.3c1.6-2.1,2.5-4.3,5-6.5s5.6-1.9,7.4-1.7a17.3,17.3,0,0,1-4.9,6.2A11.7,11.7,0,0,1,13,49.3Z" style="fill:#e56b6f"/><path d="M13.2,57.4c1.4-2.2,2-4,4.2-6.4s5.3-2.6,7.1-2.6A18,18,0,0,1,20.2,55,10.3,10.3,0,0,1,13.2,57.4Z" style="fill:#e56b6f"/><path d="M15,63.9c2-3.2,1.8-3.9,3.8-6.6s4.8-2.7,6.6-2.9a15.6,15.6,0,0,1-3.6,6.7C19.3,63.7,16.8,63.3,15,63.9Z" style="fill:#e56b6f"/><path d="M18.4,70.3c1.2-2.9,1-4.6,2.2-6.6a8,8,0,0,1,5.6-3.6c-1.4,4.1-1.1,4.1-2.6,6.6S20,69.4,18.4,70.3Z" style="fill:#e56b6f"/><path d="M22.4,75.6c.7-3,0-4,.8-6.1A8.6,8.6,0,0,1,28,64.9c-.2,2.4.1,3.9-1.2,6.5S23.9,74.4,22.4,75.6Z" style="fill:#e56b6f"/><path d="M30.6,69.7a11,11,0,0,1,.9,6.2c-.7,4.7-3.2,5.4-3.2,5.4s-1.4-2.1-1.2-6.5S30.6,69.7,30.6,69.7Z" style="fill:#e56b6f"/><path d="M35.9,74.5A13.6,13.6,0,0,1,37,80.8c-.4,4.3-2.7,5.3-2.7,5.3a12.8,12.8,0,0,1-1.6-6C32.7,74.6,35.9,74.5,35.9,74.5Z" style="fill:#e56b6f"/><path d="M199.6,8.6a36.7,36.7,0,0,1,6.5,5.3A100.4,100.4,0,0,1,214.3,24a40.4,40.4,0,0,1,4.9,8.9,59.7,59.7,0,0,1,4.2,13.2,35.3,35.3,0,0,1-1.1,15.5c-2.5,8-8.2,14.7-14.4,20.2s-11,7.2-16.9,9.3l.6,1.7c5.9-2.2,12.7-5.1,17.7-9.6S222.2,70.4,224.2,62a40.7,40.7,0,0,0,.2-17.7,56.4,56.4,0,0,0-3.7-10.7,63,63,0,0,0-5.6-9.4,106.2,106.2,0,0,0-9.1-11,31.4,31.4,0,0,0-6-4.9Z" style="fill:#e56b6f"/><path d="M209.1,91.5c4.5.5,6.6-.8,6.6-.8s-.4-3.3-5.7-3.9a19.1,19.1,0,0,0-7.5.9S203.8,91,209.1,91.5Z" style="fill:#e56b6f"/><path d="M209.6,82.8s1,2.9,6.3,2.9,6.7-1.4,6.7-1.4-.4-3.1-6.1-3.2A18.4,18.4,0,0,0,209.6,82.8Z" style="fill:#e56b6f"/><path d="M214.9,77.6s2.3,3,7.4,1.7a13.8,13.8,0,0,0,6.6-3.6s-1.9-3.3-7.4-1.9C218.2,74.6,214.9,77.6,214.9,77.6Z" style="fill:#e56b6f"/><path d="M228.7,70.8a12.4,12.4,0,0,0,6.4-3.8c0-.1-2.4-3.2-7.5-1.7a18.7,18.7,0,0,0-6.8,4.3S222.8,72.4,228.7,70.8Z" style="fill:#e56b6f"/><path d="M223.6,63.3s2.8,1.5,7.8-.9A14.5,14.5,0,0,0,237,57c-.1-.1-2.9-1.7-6.7.2a17.8,17.8,0,0,0-6.7,6.1Z" style="fill:#e56b6f"/><path d="M224.5,57.7s3.3-.2,7.1-3.5a12.9,12.9,0,0,0,4-8.4,8.9,8.9,0,0,0-7.6,3.8C226,52.6,225.9,56.3,224.5,57.7Z" style="fill:#e56b6f"/><path d="M230.2,44.4c2.6-4,1.9-9.1,1.9-9.1a8.7,8.7,0,0,0-6.2,5.7,23.2,23.2,0,0,0-1,7.9S227.5,48.6,230.2,44.4Z" style="fill:#e56b6f"/><path d="M223,40.5s1.7-.1,3.9-4.7a13.5,13.5,0,0,0,.6-9.3,7.6,7.6,0,0,0-5,6.6A26.4,26.4,0,0,0,223,40.5Z" style="fill:#e56b6f"/><path d="M219.3,31.4s2.7-1,3.8-4.9c1.9-6.4-1.3-9.3-1.3-9.3a8.8,8.8,0,0,0-3.7,7.1A17.4,17.4,0,0,0,219.3,31.4Z" style="fill:#e56b6f"/><path d="M214.7,23.9a14.5,14.5,0,0,0,1.7-6.7c.1-6-3.4-7.6-3.4-7.6a14.4,14.4,0,0,0-1.1,7.4A21.8,21.8,0,0,0,214.7,23.9Z" style="fill:#e56b6f"/><path d="M209.9,10.2c-.3-5.3-3.6-7.4-3.6-7.4a19.5,19.5,0,0,0-.6,7.4,14.7,14.7,0,0,0,3.2,6.5C209.2,16.1,210.1,14.2,209.9,10.2Z" style="fill:#e56b6f"/><path d="M204.8,12.3a20.3,20.3,0,0,0-4.7-5.8A8.1,8.1,0,0,0,191.8,5a17.2,17.2,0,0,0,5.6,6.1C199.9,12.5,204.8,12.3,204.8,12.3Z" style="fill:#e56b6f"/><path d="M210.2,18.3a13.2,13.2,0,0,1-6.5.8,10.2,10.2,0,0,1-6.9-3.4,9.4,9.4,0,0,1,7-.9A11.6,11.6,0,0,1,210.2,18.3Z" style="fill:#e56b6f"/><path d="M215,24.7c-.6.3-2,1.3-6,.9a8.9,8.9,0,0,1-6.4-3.4c1.6-.9,3.1-1.4,6.2-.9A10.6,10.6,0,0,1,215,24.7Z" style="fill:#e56b6f"/><path d="M219.7,33.1a14.2,14.2,0,0,1-7.1,0c-3.5-1-5.7-4.4-6.2-5.2,1.6-.6,3.6-1.4,7.5.3A15.3,15.3,0,0,1,219.7,33.1Z" style="fill:#e56b6f"/><path d="M215.4,40c-3.5-1.3-5.4-4.8-5.9-5.6,1.7-.5,3.8-1.1,7.5.8a14,14,0,0,1,5.5,5.3A12.3,12.3,0,0,1,215.4,40Z" style="fill:#e56b6f"/><path d="M224,49.3a11.7,11.7,0,0,1-7.5-2,17.3,17.3,0,0,1-4.9-6.2c1.8-.2,4.4-1.1,7.4,1.7S222.4,47.2,224,49.3Z" style="fill:#e56b6f"/><path d="M216.8,55a18,18,0,0,1-4.3-6.6c1.8,0,4.3-.5,7.1,2.6s2.8,4.2,4.2,6.4A10.3,10.3,0,0,1,216.8,55Z" style="fill:#e56b6f"/><path d="M222,63.9c-1.8-.6-4.3-.2-6.8-2.8a15.6,15.6,0,0,1-3.6-6.7c1.8.2,4.5.1,6.6,2.9S220,60.7,222,63.9Z" style="fill:#e56b6f"/><path d="M218.6,70.3c-1.6-.9-3.6-1.2-5.2-3.6s-1.2-2.5-2.6-6.6c1.8.1,3.7.3,5.6,3.6S217.4,67.4,218.6,70.3Z" style="fill:#e56b6f"/><path d="M214.6,75.6c-1.5-1.2-3.4-2.3-4.4-4.2s-1-4.1-1.2-6.5c1.7.5,3.5,1,4.8,4.6s.1,3.1.8,6.1Z" style="fill:#e56b6f"/><path d="M209.9,74.8c.2,4.4-1.2,6.5-1.2,6.5s-2.5-.7-3.2-5.4a11,11,0,0,1,.9-6.2S209.8,70.1,209.9,74.8Z" style="fill:#e56b6f"/><path d="M201.1,74.5s3.2.1,3.2,5.6a12.8,12.8,0,0,1-1.6,6s-2.3-1-2.7-5.3A13.6,13.6,0,0,1,201.1,74.5Z" style="fill:#e56b6f"/></svg>