<svg id="Layer_1" data-name="Layer 1" xmlns="http://www.w3.org/2000/svg" width="234.387" height="252.897" viewBox="0 0 234.387 252.897">
  <g>
    <g>
      <path d="M23.358,210.579c-11.443.14-16.1,7.312-17.371,17.988" style="fill: none;stroke: #191919;stroke-linecap: round;stroke-miterlimit: 2;stroke-width: 11.380000114440918px"/>
      <path d="M92.587,110.367S135.929,12.852,64.411,5.024,79.857,115.008,81.64,115.473" style="fill: none;stroke: #191919;stroke-linecap: round;stroke-miterlimit: 2;stroke-width: 9.300000190734863px"/>
      <path d="M140.305,229.219c-21.189,6.558-41.2,9.43-60.231,9.014-18.828-.813-35.21-5.371-48.646-14.16-13.642-8.394-22.954-21.779-28.055-39.456-5.189-17.982-4.408-34.16,2.462-49.234C12.5,120.7,23.78,107.585,39.177,96.511,54.869,85.346,73.119,76.378,94.307,69.82s41.2-9.431,59.937-8.923,35.122,5.066,48.852,13.764c13.348,8.485,22.954,21.779,28.055,39.456s4.114,34.251-2.55,48.929c-6.87,15.075-18.151,28.194-33.461,39.573C179.743,213.692,161.493,222.661,140.305,229.219Z" style="fill: #83254f"/>
      <ellipse cx="29.402" cy="162.861" rx="8.2" ry="8.492" style="fill: #191919;stroke: #191919;stroke-linecap: square;stroke-linejoin: round;stroke-width: 4px"/>
      <ellipse cx="76.729" cy="171.353" rx="8.2" ry="8.492" style="fill: #191919;stroke: #191919;stroke-linecap: square;stroke-linejoin: round;stroke-width: 4px"/>
      <path d="M125.735,106.6S147.252,1.584,209.112,39.569s-75.848,78.626-77.546,77.9" style="fill: none;stroke: #191919;stroke-linecap: round;stroke-miterlimit: 2;stroke-width: 9.149999618530273px"/>
      <path d="M117.05,229.218c11.442.141,16.1,7.313,17.37,17.989" style="fill: none;stroke: #191919;stroke-linecap: round;stroke-miterlimit: 2;stroke-width: 11.380000114440918px"/>
      <path d="M158.037,211.229c11.443.14,16.1,7.312,17.37,17.989" style="fill: none;stroke: #191919;stroke-linecap: round;stroke-miterlimit: 2;stroke-width: 11.380000114440918px"/>
      <path d="M188.686,197.747c11.1-2.873,17.366,2.839,21.211,12.832" style="fill: none;stroke: #191919;stroke-linecap: round;stroke-miterlimit: 2;stroke-width: 11.479999542236328px"/>
      <path d="M38.321,184.6c0,.354,3.956,4.9,9.464.713.165-.03,4.113,4.683,9.4.982" style="fill: none;stroke: #191919;stroke-linecap: round;stroke-linejoin: round;stroke-width: 4px"/>
    </g>
    <ellipse cx="221.898" cy="139.919" rx="15.956" ry="5.407" transform="matrix(0.19, -0.982, 0.982, 0.19, 42.275, 331.103)" style="fill: #fff"/>
    <ellipse cx="208.975" cy="165.105" rx="3.033" ry="3.429" style="fill: #fff"/>
    <ellipse cx="27.789" cy="120.666" rx="8.835" ry="4.615" transform="translate(-90.605 84.399) rotate(-60)" style="fill: #fff"/>
    <circle cx="33.723" cy="136.358" r="3.099" style="fill: #fff"/>
  </g>
</svg>
