<svg width="89.39mm" height="96.416" viewBox="0 0 89.39 25.51" xmlns="http://www.w3.org/2000/svg"><g paint-order="stroke fill markers"><path fill="#83254f" d="M0 0h89.39v25.51H0z"/><g fill="#fff9f2"><path d="M33.977 13.832l.685 2.45q.02.073.048.256.034.183.116.752.043-.222.106-.467.068-.246.164-.55l.738-2.441h1.495l-1.64 4.73h-1.466l-.71-2.45q-.018-.067-.062-.216-.159-.555-.231-.907-.063.328-.126.598-.058.27-.125.506l-.728 2.47H30.78l-1.64-4.731h1.5l.723 2.348q.097.319.16.58.062.255.105.525.039-.294.092-.564.053-.275.125-.53l.632-2.36zM41.507 16.202q0-.579-.338-.92-.337-.348-.906-.348-.57 0-.902.342-.333.343-.333.926 0 .579.333.926.333.347.902.347.564 0 .902-.347.342-.347.342-.926zm1.399.01q0 1.09-.748 1.813-.742.723-1.886.723-1.153 0-1.9-.723t-.747-1.813q0-1.085.752-1.813.753-.728 1.895-.728 1.148 0 1.891.718t.743 1.823zM45.277 15.052q.207-.69.593-1.032.39-.342.965-.342.13 0 .43.048l.086.015-.207 1.476q-.155-.063-.314-.092-.154-.034-.328-.034-.627 0-.902.323-.275.319-.275 1.071v2.084H43.95v-4.73h1.355zM48.037 18.562v-7.476h1.37v7.476zM54.287 16.192q0-.636-.323-1.008-.318-.371-.863-.371-.56 0-.883.367-.318.361-.318 1.003t.313 1.003q.318.361.878.361.569 0 .882-.357t.314-.998zm1.254 2.373H54.21l.02-.68q-.28.449-.676.661-.39.207-.955.207-.94 0-1.519-.699-.574-.7-.574-1.847 0-1.201.564-1.871.57-.67 1.577-.67.516 0 .907.236.39.236.733.748-.024-.174-.038-.381-.01-.213-.01-.483V11.09h1.302zM59.467 17.732l1.056-.545q.053.275.285.434.231.16.574.16.337 0 .53-.121.193-.125.193-.342 0-.343-.685-.574-.212-.073-.338-.121-.834-.314-1.158-.632-.318-.318-.318-.786 0-.695.545-1.124.545-.43 1.437-.43.637 0 1.1.256.468.256.68.724l-1.008.501q-.082-.265-.284-.4-.203-.14-.507-.14t-.492.126q-.188.125-.188.328 0 .352.936.655.11.034.169.054.776.255 1.104.598.328.337.328.863 0 .704-.545 1.119-.545.415-1.471.415-.733 0-1.254-.27-.516-.275-.69-.748zM64.607 18.562v-3.656h-.66V13.83h.66v-1.572h1.375v1.572h.66v1.076h-.66v3.656zM71.067 16.202q0-.579-.338-.92-.337-.348-.906-.348t-.902.342q-.333.343-.333.926 0 .579.333.926t.902.347q.564 0 .902-.347.342-.347.342-.926zm1.399.01q0 1.09-.748 1.813-.742.723-1.886.723-1.153 0-1.9-.723-.747-.724-.747-1.813 0-1.085.752-1.813.753-.728 1.895-.728 1.148 0 1.891.718.743.719.743 1.823zM74.837 15.052q.207-.69.593-1.032.39-.342.965-.342.13 0 .43.048l.086.015-.207 1.476q-.155-.063-.314-.092-.154-.034-.328-.034-.627 0-.902.323-.275.319-.275 1.071v2.084H73.51v-4.73h1.355z"/><path d="M78.707 18.202l-1.905-4.365h1.587l.82 2.166q.082.203.135.468.053.26.082.584.048-.26.12-.53.073-.27.179-.575l.719-2.113h1.572l-2.817 6.883h-1.52zM20.046 5.244a7.372 11.36 69.3 00-5.414 1.082 7.372 11.36 69.3 00-8.02 10.912 7.372 11.36 69.3 0013.233 2.878 7.372 11.36 69.3 003.05-1.521 2.16 2.16 0 01-.822-.524c-.447-.457-.671-1.071-.671-1.843 0-.743.233-1.354.7-1.833.47-.48 1.069-.719 1.799-.719.752 0 1.347.225 1.784.676.327.333.531.759.614 1.274a7.372 11.36 69.3 001.566-6.421 7.372 11.36 69.3 00-7.819-3.961zm-8.142 8.43c.766 0 1.396.24 1.891.72s.743 1.086.743 1.823c0 .727-.25 1.331-.748 1.813-.495.483-1.124.724-1.886.724-.768 0-1.401-.241-1.9-.724-.499-.482-.748-1.086-.748-1.813 0-.724.251-1.328.753-1.814.501-.485 1.133-.728 1.895-.728zm6.769 0c.366 0 .673.063.92.189.251.122.45.31.594.564.07.132.12.281.15.449.032.164.048.423.048.776v2.915H19.01v-2.34c0-.581-.067-.966-.202-1.152-.135-.187-.367-.28-.695-.28-.19 0-.365.04-.525.12a1.127 1.127 0 00-.579.719 3.01 3.01 0 00-.053.661V18.567H15.58v-4.731h1.346v.743c.247-.309.512-.535.796-.68a2.04 2.04 0 01.95-.222zm5.228 1.13c-.308 0-.556.076-.742.23-.184.152-.302.377-.353.676h2.152c-.039-.299-.148-.524-.329-.675-.176-.155-.419-.232-.728-.232zm-12.005.135c-.379 0-.68.114-.901.342s-.333.537-.333.926c0 .386.11.695.333.926.222.232.522.347.901.347.377 0 .678-.116.903-.347.228-.231.342-.54.342-.926s-.113-.693-.338-.92c-.225-.232-.527-.348-.907-.348zm10.868 1.6c.054.342.178.597.371.768.193.167.455.25.786.25.219 0 .408-.038.573-.111a7.372 11.36 69.3 00.518-.453c.005-.006.01-.012.014-.02l.006.003a7.372 11.36 69.3 00.448-.436h-2.717z"/></g></g></svg>